/* XPM */
static char * closeO_xpm[] = {
"20 44 208 2",
"  	c None",
". 	c #9E9E9E",
"+ 	c #1D1D1D",
"@ 	c #1F1F1F",
"# 	c #201F1F",
"$ 	c #211F1F",
"% 	c #222020",
"& 	c #222222",
"* 	c #232020",
"= 	c #242020",
"- 	c #272121",
"; 	c #282121",
"> 	c #1E1E1E",
", 	c #202020",
"' 	c #212020",
") 	c #232121",
"! 	c #252121",
"~ 	c #292222",
"{ 	c #2C2323",
"] 	c #302424",
"^ 	c #312525",
"/ 	c #322525",
"( 	c #2D2323",
"_ 	c #212121",
": 	c #222121",
"< 	c #242222",
"[ 	c #262222",
"} 	c #2B2424",
"| 	c #382727",
"1 	c #3C2828",
"2 	c #272323",
"3 	c #262121",
"4 	c #2B2323",
"5 	c #332525",
"6 	c #3B2727",
"7 	c #762D2D",
"8 	c #D23535",
"9 	c #ED3838",
"0 	c #D33636",
"a 	c #782D2D",
"b 	c #312424",
"c 	c #3A2727",
"d 	c #993030",
"e 	c #EC3838",
"f 	c #E83838",
"g 	c #8E2F2F",
"h 	c #8D2F2F",
"i 	c #E63737",
"j 	c #9E3030",
"k 	c #372626",
"l 	c #6E2C2C",
"m 	c #A93232",
"n 	c #582A2A",
"o 	c #592A2A",
"p 	c #A73131",
"q 	c #732C2C",
"r 	c #382626",
"s 	c #1F1E1E",
"t 	c #282222",
"u 	c #DD3737",
"v 	c #E43737",
"w 	c #E13737",
"x 	c #E23737",
"y 	c #A23131",
"z 	c #DA3636",
"A 	c #A03131",
"B 	c #2A2929",
"C 	c #2D2B2B",
"D 	c #332C2C",
"E 	c #3C2F2F",
"F 	c #453131",
"G 	c #EE4141",
"H 	c #A73A3A",
"I 	c #DD3F3F",
"J 	c #E04040",
"K 	c #A53A3A",
"L 	c #2B2A2A",
"M 	c #3F3F3F",
"N 	c #434242",
"O 	c #484343",
"P 	c #4F4545",
"Q 	c #584747",
"R 	c #E45454",
"S 	c #E85454",
"T 	c #F05555",
"U 	c #E65454",
"V 	c #414141",
"W 	c #4A4A4A",
"X 	c #4D4C4C",
"Y 	c #514D4D",
"Z 	c #574F4F",
"` 	c #5F5151",
" .	c #8D5656",
"..	c #F16060",
"+.	c #B85A5A",
"@.	c #625252",
"#.	c #7A5454",
"$.	c #7B5454",
"%.	c #B75A5A",
"&.	c #925757",
"*.	c #4C4C4C",
"=.	c #494848",
"-.	c #4C4B4B",
";.	c #4E4C4C",
">.	c #524D4D",
",.	c #584F4F",
"'.	c #605151",
").	c #B05959",
"!.	c #F05F5F",
"~.	c #EA5E5E",
"{.	c #A35757",
"].	c #A25757",
"^.	c #E95E5E",
"/.	c #B45959",
"(.	c #594F4F",
"_.	c #4B4B4B",
":.	c #474747",
"<.	c #4A4949",
"[.	c #4B4949",
"}.	c #4E4A4A",
"|.	c #534B4B",
"1.	c #594D4D",
"2.	c #5F4F4F",
"3.	c #935454",
"4.	c #DE5B5B",
"5.	c #F05D5D",
"6.	c #E05B5B",
"7.	c #955454",
"8.	c #454545",
"9.	c #484747",
"0.	c #4C4848",
"a.	c #504949",
"b.	c #554B4B",
"c.	c #5A4C4C",
"d.	c #5D4D4D",
"e.	c #434343",
"f.	c #444343",
"g.	c #454444",
"h.	c #474444",
"i.	c #4A4545",
"j.	c #4E4646",
"k.	c #504646",
"l.	c #524747",
"m.	c #232323",
"n.	c #3B3A3A",
"o.	c #2D2D2D",
"p.	c #411C1C",
"q.	c #7E1F1F",
"r.	c #902020",
"s.	c #7F1F1F",
"t.	c #431C1C",
"u.	c #1E1D1D",
"v.	c #581D1D",
"w.	c #8D2020",
"x.	c #511C1C",
"y.	c #501C1C",
"z.	c #8C2020",
"A.	c #5B1D1D",
"B.	c #3C1C1C",
"C.	c #631D1D",
"D.	c #1B1B1B",
"E.	c #2D1B1B",
"F.	c #2E1B1B",
"G.	c #611D1D",
"H.	c #3F1C1C",
"I.	c #861F1F",
"J.	c #8B2020",
"K.	c #1C1C1C",
"L.	c #892020",
"M.	c #5F1D1D",
"N.	c #841F1F",
"O.	c #5D1D1D",
"P.	c #262626",
"Q.	c #952A2A",
"R.	c #652626",
"S.	c #282727",
"T.	c #272626",
"U.	c #892929",
"V.	c #8C2929",
"W.	c #632626",
"X.	c #3B3B3B",
"Y.	c #974040",
"Z.	c #9A4040",
"`.	c #393939",
" +	c #3A3A3A",
".+	c #A04141",
"++	c #994040",
"@+	c #494949",
"#+	c #5D4242",
"$+	c #A64C4C",
"%+	c #7C4545",
"&+	c #404040",
"*+	c #504141",
"=+	c #514141",
"-+	c #7A4545",
";+	c #614343",
">+	c #764444",
",+	c #A54B4B",
"'+	c #A14A4A",
")+	c #6C4242",
"!+	c #6B4242",
"~+	c #A04A4A",
"{+	c #794444",
"]+	c #614141",
"^+	c #984747",
"/+	c #A54949",
"(+	c #994747",
"_+	c #634141",
". . . . . . . . . . . . . . . . . . . . ",
"+ @ @ @ @ @ # $ % % % % $ # @ @ @ @ & & ",
"+ @ @ @ # $ * = - ; ; - = * $ # @ @ @ @ ",
"> , , ' ) ! ~ { ] ^ / ] ( ~ ! ) ' , , , ",
"@ _ : < [ } / | 1 1 1 1 | / } 2 < : _ _ ",
"@ ' * 3 4 5 6 7 8 9 9 0 a 6 5 { 3 * ' ' ",
"@ ' ) ~ b c d e f g h i e j c ^ ~ ) ' , ",
"@ % [ ( k l e m 6 n o 6 p e q r ( [ % , ",
"s ) t b 6 u v 6 6 e e 6 6 w x 6 b t ) , ",
"> ) ~ / 6 e y 6 6 z u 6 6 A e 6 / ~ ) , ",
"B C D E F G H F F I J F F K G F E D C L ",
"M N O P Q R S Q Q T T Q Q U S Q P O N V ",
"W X Y Z `  ...+.@.#.$.@.%...&.` Z Y X *.",
"=.-.;.>.,.'.).!.~.{.].^.!./.'.(.>.;.-._.",
":.<.[.}.|.1.2.3.4.5.5.6.7.2.1.|.}.[.<.<.",
"8.:.9.=.0.a.b.c.d.d.d.d.c.b.a.0.=.9.:.:.",
"V e.e.f.g.h.i.j.k.l.l.k.j.i.h.g.f.e.e.e.",
"m.m.m.m.m.m.m.m.m.m.m.m.m.m.m.m.m.m.m.m.",
"n.n.n.n.n.n.n.n.n.n.n.n.n.n.n.n.n.n.n.n.",
"o.o.o.o.o.o.o.o.o.o.o.o.o.o.o.o.o.o.o.o.",
"o.o.o.o.o.o.o.o.o.o.o.o.o.o.o.o.o.o.o.o.",
"o.o.o.o.o.o.o.o.o.o.o.o.o.o.o.o.o.o.o.o.",
". . . . . . . . . . . . . . . . . . . . ",
"+ + + + + + + + + + + + + + + + + + + + ",
"+ + + + + + + + + + + + + + + + + + + + ",
"> > > > > > > > > > > > > > > > > > > > ",
"@ @ @ @ @ @ @ @ > > > > @ @ @ @ @ @ @ @ ",
"@ @ @ @ @ @ s p.q.r.r.s.t.u.@ @ @ @ @ @ ",
"@ @ @ @ @ > v.r.w.x.y.z.r.A.> @ @ @ @ @ ",
"@ @ @ @ @ B.r.C.D.E.F.D.G.r.H.@ @ @ @ @ ",
"s s s s + I.J.K.+ r.r.+ K.L.L.+ s s s s ",
"> > > > + r.M.> + N.I.+ > O.r.+ > > > > ",
"B B B B P.Q.R.S.T.U.V.T.S.W.Q.P.B B B B ",
"M M M M X.Y.Z.`. +.+.+ +`.++Z.X.M M M M ",
"W W W W @+#+$+%+&+*+=+&+-+$+;+@+W W W W ",
"=.=.=.=.=.8.>+,+'+)+!+~+,+{+8.=.=.=.=.=.",
":.:.:.:.:.:.f.]+^+/+/+(+_+f.:.:.:.:.:.:.",
"8.8.8.8.8.8.8.8.V M M V 8.8.8.8.8.8.8.8.",
"V V V V V V V V V V V V V V V V V V V V ",
"m.m.m.m.m.m.m.m.m.m.m.m.m.m.m.m.m.m.m.m.",
"n.n.n.n.n.n.n.n.n.n.n.n.n.n.n.n.n.n.n.n.",
"o.o.o.o.o.o.o.o.o.o.o.o.o.o.o.o.o.o.o.o.",
"o.o.o.o.o.o.o.o.o.o.o.o.o.o.o.o.o.o.o.o.",
"o.o.o.o.o.o.o.o.o.o.o.o.o.o.o.o.o.o.o.o."};
