/* XPM */
static char * closeA_xpm[] = {
"20 44 79 1",
" 	c None",
".	c #9E9E9E",
"+	c #1D1D1D",
"@	c #1E1E1E",
"#	c #1F1F1F",
"$	c #1F1E1E",
"%	c #411C1C",
"&	c #7E1F1F",
"*	c #902020",
"=	c #7F1F1F",
"-	c #431C1C",
";	c #1E1D1D",
">	c #581D1D",
",	c #8D2020",
"'	c #511C1C",
")	c #501C1C",
"!	c #8C2020",
"~	c #5B1D1D",
"{	c #3C1C1C",
"]	c #631D1D",
"^	c #1B1B1B",
"/	c #2D1B1B",
"(	c #2E1B1B",
"_	c #611D1D",
":	c #3F1C1C",
"<	c #861F1F",
"[	c #8B2020",
"}	c #1C1C1C",
"|	c #892020",
"1	c #5F1D1D",
"2	c #841F1F",
"3	c #5D1D1D",
"4	c #2A2929",
"5	c #262626",
"6	c #952A2A",
"7	c #652626",
"8	c #282727",
"9	c #272626",
"0	c #892929",
"a	c #8C2929",
"b	c #632626",
"c	c #3F3F3F",
"d	c #3B3B3B",
"e	c #974040",
"f	c #9A4040",
"g	c #393939",
"h	c #3A3A3A",
"i	c #A04141",
"j	c #994040",
"k	c #4A4A4A",
"l	c #494949",
"m	c #5D4242",
"n	c #A64C4C",
"o	c #7C4545",
"p	c #404040",
"q	c #504141",
"r	c #514141",
"s	c #7A4545",
"t	c #614343",
"u	c #494848",
"v	c #454545",
"w	c #764444",
"x	c #A54B4B",
"y	c #A14A4A",
"z	c #6C4242",
"A	c #6B4242",
"B	c #A04A4A",
"C	c #794444",
"D	c #474747",
"E	c #444343",
"F	c #614141",
"G	c #984747",
"H	c #A54949",
"I	c #994747",
"J	c #634141",
"K	c #414141",
"L	c #232323",
"M	c #3B3A3A",
"N	c #2D2D2D",
"....................",
"++++++++++++++++++++",
"++++++++++++++++++++",
"@@@@@@@@@@@@@@@@@@@@",
"########@@@@########",
"######$%&**=-;######",
"#####@>*,')!*~@#####",
"#####{*]^/(^_*:#####",
"$$$$+<[}+**+}||+$$$$",
"@@@@+*1@+2<+@3*+@@@@",
"4444567890a98b654444",
"ccccdefghiihgjfdcccc",
"kkkklmnopqrpsntlkkkk",
"uuuuuvwxyzABxCvuuuuu",
"DDDDDDEFGHHIJEDDDDDD",
"vvvvvvvvKccKvvvvvvvv",
"KKKKKKKKKKKKKKKKKKKK",
"LLLLLLLLLLLLLLLLLLLL",
"MMMMMMMMMMMMMMMMMMMM",
"NNNNNNNNNNNNNNNNNNNN",
"NNNNNNNNNNNNNNNNNNNN",
"NNNNNNNNNNNNNNNNNNNN",
"....................",
"++++++++++++++++++++",
"++++++++++++++++++++",
"@@@@@@@@@@@@@@@@@@@@",
"########@@@@########",
"######$%&**=-;######",
"#####@>*,')!*~@#####",
"#####{*]^/(^_*:#####",
"$$$$+<[}+**+}||+$$$$",
"@@@@+*1@+2<+@3*+@@@@",
"4444567890a98b654444",
"ccccdefghiihgjfdcccc",
"kkkklmnopqrpsntlkkkk",
"uuuuuvwxyzABxCvuuuuu",
"DDDDDDEFGHHIJEDDDDDD",
"vvvvvvvvKccKvvvvvvvv",
"KKKKKKKKKKKKKKKKKKKK",
"LLLLLLLLLLLLLLLLLLLL",
"MMMMMMMMMMMMMMMMMMMM",
"NNNNNNNNNNNNNNNNNNNN",
"NNNNNNNNNNNNNNNNNNNN",
"NNNNNNNNNNNNNNNNNNNN"};
