/* XPM */
static char * frameAB_xpm[] = {
"1 5 3 1",
" 	c None",
".	c #2E2E2E",
"+	c #383838",
".",
".",
".",
".",
"+"};
