/* XPM */
static char * frameATR_xpm[] = {
"5 30 42 1",
" 	c None",
".	c #868686",
"+	c #9D9D9D",
"@	c #1E1E1E",
"#	c #414141",
"$	c #808080",
"%	c #434343",
"&	c #5D5D5D",
"*	c #1F1F1F",
"=	c #202020",
"-	c #4C4C4C",
";	c #515151",
">	c #2A2A2A",
",	c #4E4E4E",
"'	c #1F1E1E",
")	c #4E4D4D",
"!	c #4D4D4D",
"~	c #2A2929",
"{	c #323131",
"]	c #504F4F",
"^	c #3F3F3F",
"/	c #424242",
"(	c #555555",
"_	c #4A4A4A",
":	c #4B4B4B",
"<	c #585858",
"[	c #494848",
"}	c #4A4949",
"|	c #575656",
"1	c #474747",
"2	c #484747",
"3	c #454545",
"4	c #525252",
"5	c #4F4F4F",
"6	c #232323",
"7	c #4C4B4B",
"8	c #3B3A3A",
"9	c #434242",
"0	c #2D2D2D",
"a	c #343432",
"b	c #323230",
"c	c #252525",
"     ",
"     ",
"     ",
"     ",
"     ",
"     ",
".+   ",
"@#$  ",
"@@%& ",
"**=- ",
"***;&",
"***>,",
"***>,",
"'''>)",
"@@@>!",
"~~~{]",
"^^^/(",
"___:<",
"[[[}|",
"1112(",
"33334",
"###/5",
"66667",
"88889",
"0000a",
"0000b",
"0000a",
"cccca",
"cccca",
"cccca"};
