/* XPM */
static char * frameABL_xpm[] = {
"14 5 3 1",
" 	c None",
".	c #383838",
"+	c #2E2E2E",
".+++++++++++++",
" .++++++++++++",
" .++++++++++++",
"  ..++++++++++",
"    .........."};
