/* XPM */
static char * frameATL_xpm[] = {
"5 30 19 1",
" 	c None",
".	c #9D9D9D",
"+	c #868686",
"@	c #808080",
"#	c #6A6A6A",
"$	c #2D2D2D",
"%	c #5D5D5D",
"&	c #656565",
"*	c #434343",
"=	c #434242",
"-	c #424242",
";	c #424141",
">	c #414141",
",	c #414040",
"'	c #404040",
")	c #403F3F",
"!	c #3F3E3E",
"~	c #343432",
"{	c #252525",
"     ",
"     ",
"     ",
"     ",
"     ",
"     ",
"   .+",
"  @#$",
" %#$$",
" &$$$",
"%#$$$",
"*$$$$",
"*$$$$",
"=$$$$",
"-$$$$",
";$$$$",
">$$$$",
">$$$$",
",$$$$",
"'$$$$",
"'$$$$",
"'$$$$",
")$$$$",
"!$$$$",
")$$$$",
"!$$$$",
"~$$$$",
"~{{{{",
"~{{{{",
"~{{{{"};
