/* XPM */
static char * frameAT_xpm[] = {
"5 30 3 1",
" 	c None",
".	c #868686",
"+	c #2D2D2D",
"     ",
"     ",
"     ",
"     ",
"     ",
".....",
"+++++",
"+++++",
"+++++",
"+++++",
"+++++",
"+++++",
"+++++",
"+++++",
"+++++",
"+++++",
"+++++",
"+++++",
"+++++",
"+++++",
"+++++",
"+++++",
"+++++",
"+++++",
"+++++",
"+++++",
"+++++",
"+++++",
"+++++",
"+++++"};
