/* XPM */
static char * maximizeO_xpm[] = {
"20 44 130 2",
"  	c None",
". 	c #9E9E9E",
"+ 	c #1D1D1D",
"@ 	c #1F1F1F",
"# 	c #1F201F",
"$ 	c #20211F",
"% 	c #20221F",
"& 	c #1E1E1E",
"* 	c #202020",
"= 	c #202120",
"- 	c #212220",
"; 	c #22231F",
"> 	c #23261F",
", 	c #24281F",
"' 	c #24291F",
") 	c #212121",
"! 	c #212221",
"~ 	c #222321",
"{ 	c #242620",
"] 	c #252A20",
"^ 	c #282E1F",
"/ 	c #2A321E",
"( 	c #2B351E",
"_ 	c #212020",
": 	c #222220",
"< 	c #24251F",
"[ 	c #262A1E",
"} 	c #2A311D",
"| 	c #2D381C",
"1 	c #303F1C",
"2 	c #32411B",
"3 	c #29311D",
"4 	c #2E3C1C",
"5 	c #4E682A",
"6 	c #749841",
"7 	c #8FB954",
"8 	c #272D1E",
"9 	c #2C381C",
"0 	c #88B04F",
"a 	c #9AC75D",
"b 	c #1F1E1E",
"c 	c #2F3F1C",
"d 	c #212320",
"e 	c #2A341D",
"f 	c #31411B",
"g 	c #6F923E",
"h 	c #2A2929",
"i 	c #2C2D2A",
"j 	c #2F3228",
"k 	c #343D26",
"l 	c #3A4A24",
"m 	c #95BD5C",
"n 	c #4D622D",
"o 	c #3F3F3F",
"p 	c #424240",
"q 	c #44483F",
"r 	c #47503C",
"s 	c #4C5A38",
"t 	c #87A75B",
"u 	c #7E9C55",
"v 	c #4D5D37",
"w 	c #4A4A4A",
"x 	c #4D4D4B",
"y 	c #4E504A",
"z 	c #505748",
"A 	c #535F44",
"B 	c #6E864F",
"C 	c #98B86A",
"D 	c #84A15C",
"E 	c #667B4A",
"F 	c #494848",
"G 	c #4B4C4B",
"H 	c #4C4E4A",
"I 	c #4E5248",
"J 	c #505845",
"K 	c #536042",
"L 	c #6E854E",
"M 	c #8CAC62",
"N 	c #A5C674",
"O 	c #474747",
"P 	c #4A4949",
"Q 	c #4B4A48",
"R 	c #4B4D48",
"S 	c #4D5146",
"T 	c #4F5744",
"U 	c #515C41",
"V 	c #536140",
"W 	c #54633E",
"X 	c #454545",
"Y 	c #474847",
"Z 	c #484846",
"` 	c #484B46",
" .	c #4A4E44",
"..	c #4B5243",
"+.	c #4D5541",
"@.	c #4E5841",
"#.	c #414141",
"$.	c #434343",
"%.	c #434443",
"&.	c #444442",
"*.	c #444642",
"=.	c #454741",
"-.	c #464A41",
";.	c #464A40",
">.	c #232323",
",.	c #3B3A3A",
"'.	c #2D2D2D",
").	c #2E2E2E",
"!.	c #424242",
"~.	c #515151",
"{.	c #4D4D4D",
"].	c #585858",
"^.	c #2B2A2A",
"/.	c #5A5959",
"(.	c #343333",
"_.	c #404040",
":.	c #5E5E5E",
"<.	c #595959",
"[.	c #4B4B4B",
"}.	c #575757",
"|.	c #6C6C6C",
"1.	c #626262",
"2.	c #535353",
"3.	c #4C4C4C",
"4.	c #494949",
"5.	c #565656",
"6.	c #666666",
"7.	c #737373",
"8.	c #474646",
"9.	c #484747",
". . . . . . . . . . . . . . . . . . . . ",
"+ + + + + + + + + + + + + + + + + + + + ",
"+ + @ @ @ @ # $ $ % % $ $ # @ @ @ @ + + ",
"& & * * = - ; > , ' ' , > ; - = * * & & ",
"@ @ ) ! ~ { ] ^ / ( ( / ^ ] { ~ ! ) @ @ ",
"@ @ _ : < [ } | 1 2 2 1 | } [ < : _ @ @ ",
"@ @ = ; ' 3 4 5 6 7 7 6 5 4 3 ' ; = @ @ ",
"@ @ - > 8 9 5 0 a a a a 0 5 9 8 > - @ @ ",
"b b - , 3 c 6 a a a a a a 6 c 3 , - b b ",
"& & d ' e f 7 g f f f f g 7 f e ' d & & ",
"h h i j k l m n l l l l n m l k j i h h ",
"o o p q r s t u v v v v u t s r q p o o ",
"w w x y z A B C D E E D C B A z y x w w ",
"F F G H I J K L M N N M L K J I H G F F ",
"O O P Q R S T U V W W V U T S R Q P O O ",
"X X O Y Z `  ...+.@.@.+... .` Z Y O X X ",
"#.#.$.$.%.&.*.=.-.;.;.-.=.*.&.%.$.$.#.#.",
">.>.>.>.>.>.>.>.>.>.>.>.>.>.>.>.>.>.>.>.",
",.,.,.,.,.,.,.,.,.,.,.,.,.,.,.,.,.,.,.,.",
"'.'.'.'.'.'.'.'.'.'.'.'.'.'.'.'.'.'.'.'.",
"'.'.'.'.'.'.'.'.'.'.'.'.'.'.'.'.'.'.'.'.",
"'.'.'.'.'.'.'.'.'.'.'.'.'.'.'.'.'.'.'.'.",
". . . . . . . . . . . . . . . . . . . . ",
"+ + + + + + + + + + + + + + + + + + + + ",
"+ + + + + + + + + + + + + + + + + + + + ",
"& & & & & & & & & & & & & & & & & & & & ",
"@ @ @ @ @ @ @ @ @ @ @ @ @ @ @ @ @ @ @ @ ",
"@ @ @ @ @ @ @ @ @ @ @ @ @ @ @ @ @ @ @ @ ",
"@ @ @ @ @ @ * ).!.~.~.!.).* @ @ @ @ @ @ ",
"@ @ @ @ @ @ ).{.].].].].{.).@ @ @ @ @ @ ",
"b b b b b @ !.].].].].].].!.@ b b b b b ",
"& & & & & @ ~.o * * * * o ~.@ & & & & & ",
"h h h h h ^./.(.^.^.^.^.(./.^.h h h h h ",
"o o o o o _.:.<.#.#.#.#.<.:.#.o o o o o ",
"w w w w w [.}.|.1.2.2.1.|.}.3.w w w w w ",
"F F F F F 4.[.5.6.7.7.6.5.[.[.F F F F F ",
"O O O O O 8.9.F P P P P P P P O O O O O ",
"X X X X X X X X X X X X X X X X X X X X ",
"#.#.#.#.#.#.#.#.#.#.#.#.#.#.#.#.#.#.#.#.",
">.>.>.>.>.>.>.>.>.>.>.>.>.>.>.>.>.>.>.>.",
",.,.,.,.,.,.,.,.,.,.,.,.,.,.,.,.,.,.,.,.",
"'.'.'.'.'.'.'.'.'.'.'.'.'.'.'.'.'.'.'.'.",
"'.'.'.'.'.'.'.'.'.'.'.'.'.'.'.'.'.'.'.'.",
"'.'.'.'.'.'.'.'.'.'.'.'.'.'.'.'.'.'.'.'."};
