/* XPM */
static char * maximizeA_xpm[] = {
"20 44 41 1",
" 	c None",
".	c #9E9E9E",
"+	c #1D1D1D",
"@	c #1E1E1E",
"#	c #1F1F1F",
"$	c #202020",
"%	c #2E2E2E",
"&	c #424242",
"*	c #515151",
"=	c #4D4D4D",
"-	c #585858",
";	c #1F1E1E",
">	c #3F3F3F",
",	c #2A2929",
"'	c #2B2A2A",
")	c #5A5959",
"!	c #343333",
"~	c #404040",
"{	c #5E5E5E",
"]	c #595959",
"^	c #414141",
"/	c #4A4A4A",
"(	c #4B4B4B",
"_	c #575757",
":	c #6C6C6C",
"<	c #626262",
"[	c #535353",
"}	c #4C4C4C",
"|	c #494848",
"1	c #494949",
"2	c #565656",
"3	c #666666",
"4	c #737373",
"5	c #474747",
"6	c #474646",
"7	c #484747",
"8	c #4A4949",
"9	c #454545",
"0	c #232323",
"a	c #3B3A3A",
"b	c #2D2D2D",
"....................",
"++++++++++++++++++++",
"++++++++++++++++++++",
"@@@@@@@@@@@@@@@@@@@@",
"####################",
"####################",
"######$%&**&%$######",
"######%=----=%######",
";;;;;#&------&#;;;;;",
"@@@@@#*>$$$$>*#@@@@@",
",,,,,')!''''!)',,,,,",
">>>>>~{]^^^^]{^>>>>>",
"/////(_:<[[<:_}/////",
"|||||1(234432((|||||",
"5555567|888888855555",
"99999999999999999999",
"^^^^^^^^^^^^^^^^^^^^",
"00000000000000000000",
"aaaaaaaaaaaaaaaaaaaa",
"bbbbbbbbbbbbbbbbbbbb",
"bbbbbbbbbbbbbbbbbbbb",
"bbbbbbbbbbbbbbbbbbbb",
"....................",
"++++++++++++++++++++",
"++++++++++++++++++++",
"@@@@@@@@@@@@@@@@@@@@",
"####################",
"####################",
"######$%&**&%$######",
"######%=----=%######",
";;;;;#&------&#;;;;;",
"@@@@@#*>$$$$>*#@@@@@",
",,,,,')!''''!)',,,,,",
">>>>>~{]^^^^]{^>>>>>",
"/////(_:<[[<:_}/////",
"|||||1(234432((|||||",
"5555567|888888855555",
"99999999999999999999",
"^^^^^^^^^^^^^^^^^^^^",
"00000000000000000000",
"aaaaaaaaaaaaaaaaaaaa",
"bbbbbbbbbbbbbbbbbbbb",
"bbbbbbbbbbbbbbbbbbbb",
"bbbbbbbbbbbbbbbbbbbb"};
