/* XPM */
static char * menuButtonA_xpm[] = {
"22 44 3 1",
" 	c None",
".	c #9E9E9E",
"+	c #2D2D2D",
"......................",
"++++++++++++++++++++++",
"++++++++++++++++++++++",
"++++++++++++++++++++++",
"++++++++++++++++++++++",
"++++++++++++++++++++++",
"++++++++++++++++++++++",
"++++++++++++++++++++++",
"++++++++++++++++++++++",
"++++++++++++++++++++++",
"++++++++++++++++++++++",
"++++++++++++++++++++++",
"++++++++++++++++++++++",
"++++++++++++++++++++++",
"++++++++++++++++++++++",
"++++++++++++++++++++++",
"++++++++++++++++++++++",
"++++++++++++++++++++++",
"++++++++++++++++++++++",
"++++++++++++++++++++++",
"++++++++++++++++++++++",
"++++++++++++++++++++++",
"......................",
"++++++++++++++++++++++",
"++++++++++++++++++++++",
"++++++++++++++++++++++",
"++++++++++++++++++++++",
"++++++++++++++++++++++",
"++++++++++++++++++++++",
"++++++++++++++++++++++",
"++++++++++++++++++++++",
"++++++++++++++++++++++",
"++++++++++++++++++++++",
"++++++++++++++++++++++",
"++++++++++++++++++++++",
"++++++++++++++++++++++",
"++++++++++++++++++++++",
"++++++++++++++++++++++",
"++++++++++++++++++++++",
"++++++++++++++++++++++",
"++++++++++++++++++++++",
"++++++++++++++++++++++",
"++++++++++++++++++++++",
"++++++++++++++++++++++"};
