/* XPM */
static char * minimizeO_xpm[] = {
"20 44 126 2",
"  	c None",
". 	c #9E9E9E",
"+ 	c #A1A1A1",
"@ 	c #1D1D1D",
"# 	c #1E1E1E",
"$ 	c #1F1F1F",
"% 	c #202020",
"& 	c #212121",
"* 	c #1F1E1E",
"= 	c #201F1F",
"- 	c #212020",
"; 	c #202120",
"> 	c #212220",
", 	c #212320",
"' 	c #22231F",
") 	c #22241F",
"! 	c #1F201F",
"~ 	c #23251F",
"{ 	c #24281F",
"] 	c #252A1F",
"^ 	c #262B1E",
"/ 	c #262C1E",
"( 	c #20221F",
"_ 	c #252A1E",
": 	c #28301E",
"< 	c #2A341D",
"[ 	c #2C381D",
"} 	c #2C381C",
"| 	c #2A2929",
"1 	c #2B2C2B",
"2 	c #2B2C28",
"3 	c #2E3127",
"4 	c #333A27",
"5 	c #374325",
"6 	c #3A4A24",
"7 	c #2F3228",
"8 	c #2D2D29",
"9 	c #3F3F3F",
"0 	c #3E3F3E",
"a 	c #40423D",
"b 	c #43493C",
"c 	c #48523A",
"d 	c #87A75B",
"e 	c #AACF75",
"f 	c #48533B",
"g 	c #454B3E",
"h 	c #434540",
"i 	c #4A4A4A",
"j 	c #484B46",
"k 	c #4C5246",
"l 	c #515B44",
"m 	c #6D854E",
"n 	c #9FC070",
"o 	c #AED17D",
"p 	c #6E854F",
"q 	c #525C45",
"r 	c #4F5448",
"s 	c #4D504B",
"t 	c #494848",
"u 	c #474845",
"v 	c #4B4E45",
"w 	c #4E5744",
"x 	c #536041",
"y 	c #6E854E",
"z 	c #8CAC62",
"A 	c #A5C674",
"B 	c #536142",
"C 	c #505845",
"D 	c #4D5148",
"E 	c #4C4D4A",
"F 	c #474747",
"G 	c #484943",
"H 	c #4A4F43",
"I 	c #4E5541",
"J 	c #515C40",
"K 	c #54623F",
"L 	c #54643E",
"M 	c #525D41",
"N 	c #4F5743",
"O 	c #4D5246",
"P 	c #4C4D47",
"Q 	c #4B4A48",
"R 	c #454545",
"S 	c #434341",
"T 	c #464842",
"U 	c #484C42",
"V 	c #4A5142",
"W 	c #4D5541",
"X 	c #4E5841",
"Y 	c #4B5243",
"Z 	c #4A4E44",
"` 	c #494B45",
" .	c #484846",
"..	c #474847",
"+.	c #414141",
"@.	c #3F403F",
"#.	c #41413F",
"$.	c #424440",
"%.	c #444740",
"&.	c #464A41",
"*.	c #464A40",
"=.	c #454841",
"-.	c #444642",
";.	c #444442",
">.	c #434443",
",.	c #434343",
"'.	c #232323",
").	c #3B3A3A",
"!.	c #3D3D3D",
"~.	c #2D2D2D",
"{.	c #2B2A2A",
"].	c #404040",
"^.	c #5E5E5E",
"/.	c #717171",
"(.	c #4B4B4B",
"_.	c #565656",
":.	c #707070",
"<.	c #797979",
"[.	c #575757",
"}.	c #4C4C4C",
"|.	c #494949",
"1.	c #666666",
"2.	c #737373",
"3.	c #474646",
"4.	c #484747",
"5.	c #4A4949",
". . + + + + + + + + + + + + + + + . . . ",
"@ @ # # $ $ $ $ $ $ $ $ $ $ $ $ $ @ @ @ ",
"@ @ # $ $ $ $ $ $ $ $ $ $ $ $ $ $ @ @ @ ",
"# # $ $ % % % % % % % % % % % % % # # # ",
"$ $ $ % % & & & & & & & & & & & & $ $ $ ",
"$ $ * = - - - - - - - - - - - - - $ $ $ ",
"$ $ # $ % % % % % % % % % % % % % $ $ $ ",
"$ $ # $ ; > , ' ' ) ) ' ' , > ; % $ $ $ ",
"* * # ! , ~ { ] ^ / / ^ ] { ~ , ; * * * ",
"# # ! ( ~ _ : < [ } } [ < : _ ~ , # # # ",
"| | 1 2 3 4 5 6 6 6 6 6 6 5 4 7 8 | | | ",
"9 9 0 a b c d e e e e e e d f g h 9 9 9 ",
"i i i j k l m n o o o o n p q r s i i i ",
"t t t u v w x y z A A z y B C D E t t t ",
"F F F F G H I J K L L K M N O P Q F F F ",
"R R R R S T U V W X X W Y Z `  ...R R R ",
"+.+.+.+.@.#.$.%.&.*.*.&.=.-.;.>.,.+.+.+.",
"'.'.'.'.'.'.'.'.'.'.'.'.'.'.'.'.'.'.'.'.",
").).!.!.!.!.!.!.!.!.!.!.!.!.!.!.!.).).).",
"~.~.~.~.~.~.~.~.~.~.~.~.~.~.~.~.~.~.~.~.",
"~.~.~.~.~.~.~.~.~.~.~.~.~.~.~.~.~.~.~.~.",
"~.~.~.~.~.~.~.~.~.~.~.~.~.~.~.~.~.~.~.~.",
". . . . . . . . . . . . . . . . . . . . ",
"@ @ @ @ @ @ @ @ @ @ @ @ @ @ @ @ @ @ @ @ ",
"@ @ @ @ @ @ @ @ @ @ @ @ @ @ @ @ @ @ @ @ ",
"# # # # # # # # # # # # # # # # # # # # ",
"$ $ $ $ $ $ $ $ $ $ $ $ $ $ $ $ $ $ $ $ ",
"$ $ $ $ $ $ $ $ $ $ $ $ $ $ $ $ $ $ $ $ ",
"$ $ $ $ $ $ $ $ $ $ $ $ $ $ $ $ $ $ $ $ ",
"$ $ $ $ $ $ $ $ $ $ $ $ $ $ $ $ $ $ $ $ ",
"* * * * * $ * * * * * * * * $ * * * * * ",
"# # # # # $ # # # # # # # # $ # # # # # ",
"| | | | | {.{.{.{.{.{.{.{.{.{.| | | | | ",
"9 9 9 9 9 ].^././././././.^.+.9 9 9 9 9 ",
"i i i i i (._.:.<.<.<.<.:.[.}.i i i i i ",
"t t t t t |.i _.1.2.2.1._.(.(.t t t t t ",
"F F F F F 3.4.t 5.5.5.5.5.5.5.F F F F F ",
"R R R R R R R R R R R R R R R R R R R R ",
"+.+.+.+.+.+.+.+.+.+.+.+.+.+.+.+.+.+.+.+.",
"'.'.'.'.'.'.'.'.'.'.'.'.'.'.'.'.'.'.'.'.",
").).).).).).).).).).).).).).).).).).).).",
"~.~.~.~.~.~.~.~.~.~.~.~.~.~.~.~.~.~.~.~.",
"~.~.~.~.~.~.~.~.~.~.~.~.~.~.~.~.~.~.~.~.",
"~.~.~.~.~.~.~.~.~.~.~.~.~.~.~.~.~.~.~.~."};
