/* XPM */
static char * minimizeA_xpm[] = {
"20 44 32 1",
" 	c None",
".	c #9E9E9E",
"+	c #1D1D1D",
"@	c #1E1E1E",
"#	c #1F1F1F",
"$	c #1F1E1E",
"%	c #2A2929",
"&	c #2B2A2A",
"*	c #3F3F3F",
"=	c #404040",
"-	c #5E5E5E",
";	c #717171",
">	c #414141",
",	c #4A4A4A",
"'	c #4B4B4B",
")	c #565656",
"!	c #707070",
"~	c #797979",
"{	c #575757",
"]	c #4C4C4C",
"^	c #494848",
"/	c #494949",
"(	c #666666",
"_	c #737373",
":	c #474747",
"<	c #474646",
"[	c #484747",
"}	c #4A4949",
"|	c #454545",
"1	c #232323",
"2	c #3B3A3A",
"3	c #2D2D2D",
"....................",
"++++++++++++++++++++",
"++++++++++++++++++++",
"@@@@@@@@@@@@@@@@@@@@",
"####################",
"####################",
"####################",
"####################",
"$$$$$#$$$$$$$$#$$$$$",
"@@@@@#@@@@@@@@#@@@@@",
"%%%%%&&&&&&&&&&%%%%%",
"*****=-;;;;;;->*****",
",,,,,')!~~~~!{],,,,,",
"^^^^^/,)(__()''^^^^^",
":::::<[^}}}}}}}:::::",
"||||||||||||||||||||",
">>>>>>>>>>>>>>>>>>>>",
"11111111111111111111",
"22222222222222222222",
"33333333333333333333",
"33333333333333333333",
"33333333333333333333",
"....................",
"++++++++++++++++++++",
"++++++++++++++++++++",
"@@@@@@@@@@@@@@@@@@@@",
"####################",
"####################",
"####################",
"####################",
"$$$$$#$$$$$$$$#$$$$$",
"@@@@@#@@@@@@@@#@@@@@",
"%%%%%&&&&&&&&&&%%%%%",
"*****=-;;;;;;->*****",
",,,,,')!~~~~!{],,,,,",
"^^^^^/,)(__()''^^^^^",
":::::<[^}}}}}}}:::::",
"||||||||||||||||||||",
">>>>>>>>>>>>>>>>>>>>",
"11111111111111111111",
"22222222222222222222",
"33333333333333333333",
"33333333333333333333",
"33333333333333333333"};
