/* XPM */
static char * titleAQ_xpm[] = {
"1 22 17 1",
" 	c None",
".	c #9D9D9D",
"+	c #3E3E3E",
"@	c #1D1D1D",
"#	c #1E1E1E",
"$	c #1F1F1F",
"%	c #1F1E1E",
"&	c #2A2929",
"*	c #3F3F3F",
"=	c #4A4A4A",
"-	c #494848",
";	c #474747",
">	c #454545",
",	c #414141",
"'	c #232323",
")	c #3B3A3A",
"!	c #2D2D2D",
".",
"+",
"@",
"#",
"$",
"$",
"$",
"$",
"%",
"#",
"&",
"*",
"=",
"-",
";",
">",
",",
"'",
")",
"!",
"!",
"!"};
