/* XPM */
static char * titleAB_xpm[] = {
"1 22 3 1",
" 	c None",
".	c #9E9E9E",
"+	c #2D2D2D",
".",
"+",
"+",
"+",
"+",
"+",
"+",
"+",
"+",
"+",
"+",
"+",
"+",
"+",
"+",
"+",
"+",
"+",
"+",
"+",
"+",
"+"};
