/* XPM */
static char * titleAR_xpm[] = {
"7 22 41 1",
" 	c None",
".	c #9E9E9E",
"+	c #343434",
"@	c #3D3D3D",
"#	c #414141",
"$	c #222222",
"%	c #191919",
"&	c #1A1A1A",
"*	c #3B3B3B",
"=	c #232323",
"-	c #212121",
";	c #181818",
">	c #404040",
",	c #1B1B1B",
"'	c #242424",
")	c #2A2A2A",
"!	c #1D1D1D",
"~	c #313131",
"{	c #403F3F",
"]	c #363636",
"^	c #2C2C2C",
"/	c #222121",
"(	c #1C1B1B",
"_	c #3F3F3F",
":	c #353535",
"<	c #2D2D2D",
"[	c #262626",
"}	c #3F3E3E",
"|	c #454545",
"1	c #393838",
"2	c #3E3E3E",
"3	c #4A4A4A",
"4	c #3A3A3A",
"5	c #494848",
"6	c #302F2F",
"7	c #474646",
"8	c #474747",
"9	c #2E2E2E",
"0	c #2D2C2C",
"a	c #373636",
"b	c #444444",
".......",
"+@#$%&&",
"*=#-;%&",
">=#-%%&",
">=#-%&,",
">=#'&&,",
">=#)!&,",
">=#~',,",
"{=#]^/(",
"_=#*:<[",
"}=#|*1:",
"2=#|333",
"4==#|55",
"67=#|88",
"<1==#||",
"<9#==##",
"<<<>===",
"<<<0ab=",
"<<<<<0a",
"<<<<<<<",
"<<<<<<<",
"<<<<<<<"};
