/* XPM */
static char * folder_brown_16_xpm[] = {
"16 16 90 1",
" 	c None",
".	c #7E7E7D",
"+	c #7F7F7E",
"@	c #80807F",
"#	c #818180",
"$	c #747473",
"%	c #A2A2A1",
"&	c #DDDDDB",
"*	c #DDDDDC",
"=	c #DEDEDD",
"-	c #DFDFDD",
";	c #BBBBB9",
">	c #7A7A79",
",	c #747472",
"'	c #757574",
")	c #767674",
"!	c #767675",
"~	c #777776",
"{	c #777876",
"]	c #787877",
"^	c #7C7D7C",
"/	c #656564",
"(	c #C6C7C5",
"_	c #BCBDBA",
":	c #B6B7B4",
"<	c #B7B8B5",
"[	c #B9BAB8",
"}	c #CACBC9",
"|	c #CFD0CD",
"1	c #997D4B",
"2	c #8F7038",
"3	c #896B34",
"4	c #545653",
"5	c #B2B4B1",
"6	c #9C9D9A",
"7	c #979995",
"8	c #989A96",
"9	c #999B97",
"0	c #9A9C98",
"a	c #9E9277",
"b	c #A9874B",
"c	c #EFCF97",
"d	c #EFD098",
"e	c #EFCF96",
"f	c #EECE94",
"g	c #EECB8E",
"h	c #937238",
"i	c #92733C",
"j	c #97773E",
"k	c #97783F",
"l	c #9F7F46",
"m	c #DDBA7D",
"n	c #EAC075",
"o	c #E7B55E",
"p	c #EDC989",
"q	c #95743C",
"r	c #927540",
"s	c #EECA8B",
"t	c #EECB8C",
"u	c #EDC98A",
"v	c #EDC785",
"w	c #EBC279",
"x	c #E8B967",
"y	c #E8B966",
"z	c #ECC580",
"A	c #957742",
"B	c #937745",
"C	c #EDC786",
"D	c #E9BC6E",
"E	c #E9BC6D",
"F	c #967946",
"G	c #947949",
"H	c #ECC47F",
"I	c #EABF75",
"J	c #EABF74",
"K	c #967B4B",
"L	c #947B4E",
"M	c #EBC37B",
"N	c #977D4F",
"O	c #957D53",
"P	c #ECC683",
"Q	c #ECC682",
"R	c #987F54",
"S	c #967F57",
"T	c #988158",
"U	c #96815C",
"V	c #EECC91",
"W	c #99835D",
"X	c #94805E",
"Y	c #988360",
"                ",
" .++@@#         ",
"$%&*=-;>,')!~{]^",
"/(_:<[}|12222223",
"4567890abcdeefgh",
"ijjjjjklmnoooopq",
"rsgtsupvwxyyyyzA",
"BCDEEEEEEEEEEEwF",
"GHIJJJJJJJJJJJJK",
"LMMMMMMMMMMMMMMN",
"OPPPPPPPQQQQQQQR",
"SuuuuuuuuuuuuuuT",
"UVVVVVVVVVVVVVVW",
"XYYYYYYYYYYYYYYX",
"                ",
"                "};
