/* XPM */
static char * folder_11x11_xpm[] = {
"128 128 90 1",
" 	c None",
".	c #B0B0B0",
"+	c #AAAAAA",
"@	c #A4A4A4",
"#	c #A1A1A1",
"$	c #A0A0A0",
"%	c #9F9F9F",
"&	c #9E9E9E",
"*	c #9D9D9D",
"=	c #9C9C9C",
"-	c #9B9B9B",
";	c #9A9A9A",
">	c #989898",
",	c #979797",
"'	c #969696",
")	c #A9A9A9",
"!	c #AEAEAE",
"~	c #A7A7A7",
"{	c #A6A6A6",
"]	c #A5A5A5",
"^	c #A3A3A3",
"/	c #A2A2A2",
"(	c #B1B1B1",
"_	c #AFAFAF",
":	c #B2B2B2",
"<	c #B3B3B3",
"[	c #ACACAC",
"}	c #A8A8A8",
"|	c #ADADAD",
"1	c #8F8F8F",
"2	c #8C8C8C",
"3	c #8B8B8B",
"4	c #8D8D8D",
"5	c #8E8E8E",
"6	c #909090",
"7	c #919191",
"8	c #929292",
"9	c #939393",
"0	c #949494",
"a	c #959595",
"b	c #999999",
"c	c #ABABAB",
"d	c #B5B5B5",
"e	c #B6B6B6",
"f	c #B9B9B9",
"g	c #BBBBBB",
"h	c #BCBCBC",
"i	c #BEBEBE",
"j	c #C0C0C0",
"k	c #C1C1C1",
"l	c #B4B4B4",
"m	c #C3C3C3",
"n	c #C5C5C5",
"o	c #C7C7C7",
"p	c #C6C6C6",
"q	c #B7B7B7",
"r	c #CACACA",
"s	c #C9C9C9",
"t	c #CECECE",
"u	c #B8B8B8",
"v	c #CDCDCD",
"w	c #CFCFCF",
"x	c #D4D4D4",
"y	c #BABABA",
"z	c #D8D8D8",
"A	c #C8C8C8",
"B	c #BDBDBD",
"C	c #BFBFBF",
"D	c #C4C4C4",
"E	c #8A8A8A",
"F	c #898989",
"G	c #888888",
"H	c #878787",
"I	c #868686",
"J	c #858585",
"K	c #808080",
"L	c #818181",
"M	c #828282",
"N	c #838383",
"O	c #848484",
"P	c #C2C2C2",
"Q	c #CBCBCB",
"R	c #CCCCCC",
"S	c #D0D0D0",
"T	c #D1D1D1",
"U	c #D2D2D2",
"V	c #D3D3D3",
"W	c #D5D5D5",
"X	c #D6D6D6",
"Y	c #D7D7D7",
"                                                                                                                                ",
"                                                                                                                                ",
"                                                                                                                                ",
"                                                                                                                                ",
"                                                                                                                                ",
"                                                                                                                                ",
"                                                                                                                                ",
"                                                                                                                                ",
"                                                                                                                                ",
"                                                                                                                                ",
"                                                                                                                                ",
"                                                                                                                                ",
"                                                                                                                                ",
"                                                                                                                                ",
"                       .+@#$$$%&**==---;;;>>>>>,,,,,',,,',,,',,'>).                                                             ",
"                      .!~~~{]]]]]]@^^^/////##$$$$$$$$$$$$$$$$$$$$=..                                                            ",
"                      (+_____..__..._..._..._..._..._..._..._...__)(                                                            ",
"                     :.+_________________________________________.)(:                                                           ",
"                    (_+!__________________________________________{{.:                                                          ",
"               <([}@@]|____________________________________________-123332222444455551666788890a',>b;-=*&$$/^]c(<               ",
"              d()}[!!______________________________________________.[+)))))))))))))))++++++++c+ccccc[[[|[|||![}):d              ",
"              ec+..............................................................................................)ce              ",
"             f<+_...(...(...(...(...(...(...(...(...(...(...(...(...(...(...(...(...(...(...(...(...(...(...(.._+<f             ",
"             g:c((((:(((:(((:(((:(((:(((:(((:(((:(((:(((:(((:(((:(((:(((:(((:(((:(((:(((:(((:(((:(((:(((:(((:(((c:g             ",
"             h:[::::::::::::::::::::::::::::::::::::::::::::::::::::::::::::::::::::::::::::::::::::::::::::::::[:h             ",
"             i<!::::::::::::::::::::::::::::::::::::::::::::::::::::::::::::::::::::::::::::::::::::::::::::::::!<i             ",
"             j:.<<<<<<<<<<<<<<<<<<<<<<<<<<<<<<<<<<<<<<<<<<<<<<<<<<<<<<<<<<<<<<<<<<<<<<<<<<<<<<<<<<<<<<<<<<<<<<<<.:j             ",
"             k<:llllllllllllllllllllllllllllllllllllllllllllllllllllllllllllllllllllllllllllllllllllllllllllllll:<k             ",
"             m:<ddddddddddddddddddddddddddddddddddddddddddddddddddddddddddddddddddddddddddddddddddddddddddddddddl:m             ",
"             nldeeeeeeeeeeeeeeeeeeeeeeeeeeeeeeeeeeeeeeeeeeeeeeeeeeeeeeeeeeeeeeeeeeeeeeeeeeeeeeeeeeeeeeeeeeeeeeeedln             ",
"            op:eqeeeqeeeqeeeqeeeqeeeqeeeqeeeqeeeqeeeqeeeqeeeqeeeqeeeqeeeqeeeqeeeqeeeqeeeqeeeqeeeqeeeqeeeqeeeqeeeq<po            ",
"            rs<qqqqqqqqqqqqqqqqqqqqqqqqqqqqqqqqqqqqqqqqqqqqqqqqqqqqqqqqqqqqqqqqqqqqqqqqqqqqqqqqqqqqqqqqqqqqqqqqqqdsr            ",
"            tsduuuuuuuuuuuuuuuuuuuuuuuuuuuuuuuuuuuuuuuuuuuuuuuuuuuuuuuuuuuuuuuuuuuuuuuuuuuuuuuuuuuuuuuuuuuuuuuuuuqsv            ",
"            wreffffffffffffffffffffffffffffffffffffffffffffffffffffffffffffffffffffffffffffffffffffffffffffffffffurw            ",
"            xruyyyyyyyyyyyyyyyyyyyyyyyyyyyyyyyyyyyyyyyyyyyyyyyyyyyyyyyyyyyyyyyyyyyyyyyyyyyyyyyyyyyyyyyyyyyyyyyyyyyrx            ",
"            zryggggggggggggggggggggggggggggggggggggggggggggggggggggggggggggggggggggggggggggggggggggggggggggggggggyrz            ",
"            zrghhhhhhhhhhhhhhhhhhhhhhhhhhhhhhhhhhhhhhhhhhhhhhhhhhhhhhhhhhhhhhhhhhhhhhhhhhhhhhhhhhhhhhhhhhhhhhhhhhgrz            ",
"            zAhhhhhhhhhhhhhhhhhhhhhhhhhhhhhhhhhhhhhhhhhhhhhhhhhhhhhhhhhhhhhhhhhhhhhhhhhhhhhhhhhhhhhhhhhhhhhhhhhhhhAz            ",
"            zoBBBBBBBBBBBBBBBBBBBBBBBBBBBBBBBBBBBBBBBBBBBBBBBBBBBBBBBBBBBBBBBBBBBBBBBBBBBBBBBBBBBBBBBBBBBBBBBBBBBBAz            ",
"            zniiiiiiiiiiiiiiiiiiiiiiiiiiiiiiiiiiiiiiiiiiiiiiiiiiiiiiiiiiiiiiiiiiiiiiiiiiiiiiiiiiiiiiiiiiiiiiiiiiiinz            ",
"            znCCCCCCCCCCCCCCCCCCCCCCCCCCCCCCCCCCCCCCCCCCCCCCCCCCCCCCCCCCCCCCCCCCCCCCCCCCCCCCCCCCCCCCCCCCCCCCCCCCCCnz            ",
"            znjjjjjjjjjjjjjjjjjjjjjjjjjjjjjjjjjjjjjjjjjjjjjjjjjjjjjjjjjjjjjjjjjjjjjjjjjjjjjjjjjjjjjjjjjjjjjjjjjjjjDz            ",
"            znjjjjjjjjjjjjjjjjjjjjjjjjjjjjjjjjjjjjjjjjjjjjjjjjjjjjjjjjjjjjjjjjjjjjjjjjjjjjjjjjjjjjjjjjjjjjjjjjjjjjnz            ",
"            vCBBBBBBBBBBBBBBBBBBBBBBBBBBBBBBBBBBBBBBBBBBiiiiiiiiiiiiiiiiihhhhhhhhhhhhhhhhhhhhhhhhhhhhhhhhhhhhhhhhhiv            ",
"     .lyhhe<((.!!|[c))}{]]@^#$$%&=--;b>,''a0988761554233EFFGHIIJJJJJJJIHIKKKLMMNNOOOJHHGFFE3245517889a',>b--*&$$/@]]}c.(((.     ",
"    (gjCiigfuqqedl<::((.!!!|[c++))}}{{{]]]@^//#$$$%%&&**==---;;;b;;b;;;--98888899000a'',,>>>b;--==*%%%$$/^@]]{~}))+c[!:::::(    ",
"   (gjjCCiiBBhhhhhgyyyffuuuqqqqqeeeddddllll<<<<<<::::::::::::::::::::::::|~~~~~}}}}}}))))))))+++ccc[[[||!!!!!_!!_..(((:::<<<(   ",
"  :lkjjjCCiBBhhhhggyyyffuuuqqqqqeeeddddllll<<<<<<<:::::::::::::::::::::::.}}}}}))))))))))++++ccc[[[[|!!!!!!!!__...(::::<lldd::  ",
"  :hkkjjjCCiiBBhhhhggyyyffuuuqqqqqqeeeedddddllll<<<<<<<<<<::::::::::::<<<<)))))))))))++++ccccc[[|||!!!!!!!!__...(::::<<llddel:  ",
"  <BkkkjjjCCiiBBhhhhhggyyyffuuuqqqqqqqeeeeeeddddllllllllll<<<<<<<<<<<<<lll|)))))+++++ccccc[[[[|||!!!!!!!!___..((::::<<lldeeee<  ",
"  liPPkkjjjjCiiiBhhhhhhggyyyfffuuuqqqqqqqqeeeeeeddddddddddlllllllllllllddd:cccccc[[[[[[[[[||||!!!!!!!__...((:::::<<llddeeqqqql  ",
"  dBmPkkkjjjjCiiBBhhhhhghgygyfyufuuquqqqqqeeqeeqedddedddedlldllldllldlddedl[[ccc[[[[[[[[|[||!|!!!!!!___.(((:::::<<llddeeqqqqqd  ",
"  ehmmmPkkjjjjCCCiiBhBhhhhhgygyyffffuuuuquqqqqqqqqqqeqqqeqeedeeedeeedeeqeqe![|||[||||||!!!!!!!!__...(((:::::::<llddeeqqqqqufqe  ",
"  qgDDmmPPkkjjjjCCiiBBBBhhhhghggyyyyffffufuuquuqqqqqqqqqqqqqeqqqeqqqeqqqqqq:|!!!!!!!!!!_!__._..(.(::(::::<<l<ldddeqqqquuuuffqq  ",
"  qyDDmmPPkkjjjjCCCiiBBBhhhhhhgggyyyyffffuuuuuuuqqqqqqqqqqqqqqqqqqqqqqqqqqqd!!!!!!!!!!!_____...((((::::::<<lldddeeqqqqquuuufqq  ",
"  ufnDDmmPPkkjjjjCCCCiiiBBhhhhhhhggggyyyyyfffffuuuuuuuuuqqqqqqqqqqqqqqqqquuq.!!!!.__.__((..(:((:::::<:<<<dldedeeeqqqquuuuffyqq  ",
"   unnDDmmmPPkkjjjjjCCCiiBBBBhhhhhhhgggggyyyyyyyffffffffuuuuuuuuuuuuuuuuufff:....((((((:::::::::<<<<llddddeeqqqqqqqquufffyggu   ",
"   fnnnnDDmmPPPkkjjjjjCCCiiiiBBBhhhhhhhhhgggggggyyyyyyyyffffffffffffffffyyyyq((((:::::::::::<<<<lllldddeeeeqqqqqqquuufyyyghhf   ",
"   ymnnnnDmmPPPkkjkjjjCCjiiCiBBBhhhBhhhhhggghhgggyyygyygffffyfffyfffyfffyyyyf:::::::::::<<<<<llllddddeeqqeqqqqqquuffyyygghhhy   ",
"   gmnnnnnDmDmPPPkkjkjjjjCCCiiCBiBBBBhhhhhhhhhgghggghgghyyyygyyygyyygyyygggggl::<:<<l<<<lllllddddeeeqqqqqqquuuuufyyyygghhhhhg   ",
"   gPpnnnnnDDmmmPPPkkjjjjjjjCCCiiiiBBBBBhhhhhhhhhhhhhhhhgggggggggggggggghhhhhq<<<<<llllllddddeeeeqqqqqqqqqquuufffyyyghhhhhhhg   ",
"   hPopnnnnnDDDmmmPPPkkkjjjjjjjCCCCiiiiiBBBBBBhhhhhhhhhhhhhhhhhhhhhhhhhhhhhhhgldddddddddeeeeeeqqqqqqqqquqfffyyygyggghhhBhiiBh   ",
"   hkoopppnnnnDDDmmmPPPkkkjjjjjjjjCCCCCiiiiiiiBBBBBBBBBBhhhhhhhhhhhhhhhhhBBBBhedddeeeeeeeqqqqqqqqquuuufffyyyyggghhhhhBBiiCCih   ",
"   hjAopppnnnnDDDmmmPPPkPkkjkjjjjjCCjCjiCiiiCiBBiBBBiBBihhhhBhhhBhhhBhhhBBBBiiqdddeeeeeeeqqqqqqqqquuuufffyyyggghhhhhhBBiiCCih   ",
"   ijsAoopppnnnnnnDDmDmPPPkkkkjjjjjjjjjCCjjCCiCiiCCiiCCiBiiBBiiBBiiBBiiBiCCiiCgqqqqqqqqqquuuuuuffffyyyyggghhhhhhBBBiiiCCCjjiB   ",
"   CCssAoAoopppnnnnnDDDDmmmmPPPPkkkkkkjjjjjjjjjjjjjjjjjjCCCCCCCCCCCCCCCCCjjjjjiuuuufffffffyyyyyggggghhhhhhhBBBiiiiCCCjjjjjkCC   ",
"   jjsssAAAopopnpnnnnnDnDmmDmPPmPkkkPkjjkjjkjjjjjjjjjjjjCCCCjCCCjCCCjCCCjjjjjjjyfuufffffyfyygyygggghhhhhhhhBBBiiCCjCjjjjjkkjj   ",
"    jsssAAAooopppnnnnnnnDDDDmmmmPPPPPkkkkkkkjjjjjjjjjjjjjjjjjjjjjjjjjjjjjjjjjjjhffffyyyyyyyggggghhhhhhhhBBBBiiiCCCjjjjjjkkPj    ",
"    jossssAAAoooopppnnnnnnnDDDDDmmmmmPPPPPPPkkkkkkkkkjjjjjjjjjjjjjjjjjjjjjjkkkkCgggghhhhhhhhhhhhhBBBBiiiiCCCCjjjjjjjkkPPPmmj    ",
"    kossssssAAAAoooppppnnnnnnnnnDDDDDmmmmmmmPPPPPPPPPkkkkkkkkkkkkkkkkkkkkkkPPPPkhhhhhhhhhhhBBBBBBiiiiCCCCCjjjjjjjkkkPPPmmmmk    ",
"    PprrsssssAsAAoopoppnppnnnnnnnDDnDmmmDmDmmPPPmPPPmPkkPkkkPkkkPkkkPkkkPkPmmPPmBhhhhhhhhhhBBBBBBiiiiCjCCjjjjjjjkkPkPmPmmmmk    ",
"    PprrsssssssAsAooAoppopnnpnnnnnnnDDDDnDDDDmmmDmmmDmPPmPPPmPPPmPPPmPPPmPmmDmmDjBiiiiiCCCCCCjjjjjjjjjjkkkjkPPkPmPmDDDnnnnDP    ",
"    morrrrrssssssAAAAAooooppppnnnnnnnnnnnnDDDDDDDDDDDDmmmmmmmmmmmmmmmmmmmmDDDDDDmiiiiiiCCCCCCjjjjjjjjjjkkkkPPPPmmmmDDDnnnnnm    ",
"    DpQrrrrrsssssssssAAAAooooppppppnnnnnnnnnnnnnnnnnnDDDDDDDDDDDDDDDDDDDDDDnnnnnDjCCCCjjjjjjjjjjjjjkkkkkPPPPmmmmDDDnnnnnnnnD    ",
"    DnQQrrrrrsrssssssAAsAoooAoppoopnpnnnpnnnnnnnnnnnnnDDnDDDnDDDnDDDnDDDnDnnnnnnnkjjjjjkkkkkkjPPPPPkmmmmmDDDmDnnDDDnnnnnnpnD    ",
"    nnRQrrrrrrrsrsssssssAAAsAoooAoppopppopnnpnnnpnnpnnnnnnnnnnnnnnnnnnnnnnnnnnnnpDjjkjjPPkkkPkPmmPPmmmmmDDDDnnnnnnnnnnnnppnn    ",
"    ppRRQRQQrrrrrrrrsrssssssAssssAAAoAAAoooopooopoooppppnpppnpppnpppnpppnppppoooppPPkPPPPmmmPmmDmDDDDnnnDnnnnnnnnnnpnppopopp    ",
"     oQRRQQQQrrrrrrrrrsssssssssssAAAAAAAooooooooooooppppppppppppppppppppppppooooooDPPPPPmmmmmmmDDDDDDnnnnnnnnnnnnnnnpppooop     ",
"     oRvRRRRQQQQrrrrrrrrrrssssssssssssssAAAAAAAAAAAAooooooooooooooooooooooooAAAAAAnmmmmmmDDDDDDDnnnnnnnnnnnnpppnpooooAAoAAo     ",
"     AQvRRRRQQQQQrrQrrrrrrrsrsssssssssssAAAAsAAAsAAAAoooAoooAoooAoooAoooAoooAAAAsAomDmmmDDDDnDDDnnnnnnnppnnpppppooooAAAAssA     ",
"     sRtvtvvRvRRQRRQrQQQrrrrrrrrsrrrsrssssssssssssssAsssAsssAsssAsssAsssAsssAssssssnDnnnDnnnnnnnnnppnppppooooAAAoAssAssssss     ",
"     sQttvvvvRRRRRRQQQQQrrrrrrrrrrrrrrssssssssssssssssssssssssssssssssssssssssssssspnnnnnnnnnnnnnpppppppoooooAAAAAAssssssss     ",
"     srtttttvvvvvvRRRRRRQQQQQQrrrrrrrrrrrrrrrrrrrrrsssssssssssssssssssssssssssrrrrrAnpppppnoooooopoAAAAAoAssssssssssrsssrrs     ",
"     srttttttvvvvvRRvRRRRQQQRQrrQrrrQrrrrrrrrrrrrrrsrsssrsssrsssrsssrsssrsssrrrrrrrropppoppoAoooAoAAsAAAAsssssssrssrrrrrrrs     ",
"     rQtttttttttvvvvvvvRRRRRRQQQQQQQQrrrrrrrrrrrrrrrrrrrrrrrrrrrrrrrrrrrrrrrrrrrrrrrAoooooooAAAAAAAAssssssssssssrrrrrrrrrrr     ",
"     rrwwtttttttttttvvvvvvvvRRRRRRRRQQQQQQQQQQQQQrrrrrrrrrrrrrrrrrrrrrrrrrrrrrrQQQQQrAAAAAAAAsssssssssssssssrrrrrrrrrrrQQrr     ",
"     QQSwwwwwwtttttttttttttvvvvvvvvvRRRRRRRRRRRRRRQQQQQQQQQQQQQQQQQQQQQQQQQQQQQRRRRRQssssssssssssssssrrrrrrrrrrrrrrQQQQQQQQ     ",
"     RRwwwwwwwttwttttttttttvtvvvtvvvvRRRvRRRvRRvRRQQRQQQRQQQRQQQRQQQRQQQRQQQRQRRRRRRRrssrssssrrrrrrrrrrQQrrQQQQQRQQRRvRvvRR     ",
"      RwSSSSwwwwwwtttttttttttttttttvvvvvvvvvvvvvRRRRRRRRRRRRRRRRRRRRRRRRRRRRRRRRvvvvvrrrrrrrrrrrrrrrrrrQQQQQQQQRRRRRRvvvvR      ",
"      vSTTSSSSSSwwwwwwwwttttttttttttttttttttttttvvvvvvvvvvvvvvvvvvvvvvvvvvvvvvvvvttttRrrrrrrrrrrQQQQQQQQQRRRRRRRvvvvvvvttv      ",
"      tSTTTTTTTSSSTSSSwwwwwwwwwwttttttttttttttttttttttttttttttttttttttttttttttttttttttRQQQQQQQQQRRRRRRRRRRRvvvvvvvtttttttt      ",
"      twTTTTTTSSSSSSSSwwwwwwwwwwttttttttttttttttttttttttttttttttttttttttttttttttttttttRQQQQQQQQQRRRRRRRRRRtvvvvvvttttttttt      ",
"      tSUUUUTTTTTTTTSSSSSSSSSSSwwwwwwwwwwwwwwwttttttttttttttttttttttttttttttttttttwwwwtvvvvvvvvvvtttttttttttttttttttwwwwtt      ",
"      wSVVUUUUUUUUUTTTTTTTTTTSSSSSSSSSSSSSSSSwwwwwwwwwwwwwwwwwwwwwwwwwwwwwwwwwwwwwwSSSwttttttttttttttttttttttwwwwwwwwwSSSw      ",
"      wSVVUUVUUUUUUTUTUTTUUTTSSSTSSSTSSSTSSTSwwwSwwwSwwwSwwwSwwwSwwwSwwwSwwwSwwwSwwSSSSttttttttttttttwttwtttwwwwwwwwSwSSSw      ",
"      SSVVVVVVVVUUUUUUUUUUUTTTTTTTTTTTTTTTTTSSSSSSSSSSSSSSSSSSSSSSSSSSSSSSSSSSSSSSSSSTTwtttttttttttttwwwwwwwwwwwSSSSSSSSSS      ",
"      UTVVxVVVVVVVVVVVVVVUUUUUUUUUUUUUUUUUTTTTTTTTTTTTTTTTTTTTTTTTTTTTTTTTTTTTTTTTTTTTUTSSSSSSSSSSSSSSSTTTTTTTTTTTTUUUUUTU      ",
"      UUxxxVVxVVVVVVVVVVVVVVVVVVVVVVVVVVVVUUUUUUUUUUUUUUUUUUUUUUUUUUUUUUUUUUUUUUUUUUUUUVTTTTTTTTTTTTTTTTTUUUUUUUUUUUUUVVUU      ",
"       VxWxxVVxVVxVxVVVVVVVVVVVVVVVVVVVVVVUUVUUUVUUUVUUVVUUUVUUUVUUVVUUUVUUUVUUUVUUUVUUVTUTTUTTUTUTTUTUTUUUUUUUUVUUUVUVVU       ",
"       VVWxxxWxWxxxxVVVVVVVVVVVVVVVVVVVVVVVVVVVVVVVVVVVVVVVVVVVVVVVVVVVVVVVVVVVVVVVVVVVVUUUUUUUUUUUUUUUUUUUUUVVVVVVVVVVVV       ",
"       VxWWWWWWWWxWxxxxxxxxxxxxxxxxxxVVVVVVVVVVVVVVVVVVVVVVVVVVVVVVVVVVVVVVVVVVVVVVVVVVVVUUUVVVVVVVVVVVVVVVVVVVVVVVVVVVVV       ",
"       xxXXXWXXXWWWWWWWWWWWWWWWWxWWxxxxxVxxxxxxxxxxxVxxxVxxxxxxxxxxxVxxxVxxxxxxxxxxxVxxxVVVVVVVVVVVVVVVVVVVVVVVVVxVxVxxxV       ",
"       xWYYXWXXXWXXXWXXWWXXXWXXXWXWWxWWxxxWWxxWWxWxWxWxWxWWxxWWxxWWWxWWxxxWWxxWWxWxWxWxWxxVxVxxWxWWWxWWxWxWxxxWWxWxWxWXWx       ",
"       WWYXXXXXXXXXXXXXXXXXXXXXWWWWWWWWWWWWWWWWWWWWWWWWWWWWWWWWWWWWWWWWWWWWWWWWWWWWWWWWWWxxxxxxxxWWWWWWWWWWWWWWWWWWWWWWWW       ",
"       WWYYXXYYYXYYYXYXYXYYXXXXXWXXWWXXWWXXWWXXWWXXWWXXWWXXWWXXWWXXWWXXWWXXWWXXWWXXWWXXWWXWxxWxxxWXWWXXWWXXWWXXWWXXWWXXWW       ",
"       XXYYYYYYYYYYYYYYYYYYXYYYXXXXXXXXXXXXXXXXXXXXXXXXXXXXXXXXXXXXXXXXXXXXXXXXXXXXXXXXXXXWWWWWWWXXWXXXXXXXXXXXXXXXXXXXXX       ",
"       YYYYYYYYYYYYYYYYYYYYYXYYYXYYYXYYYXYYYXYYYXYYYXYYYXYYYXYYYXYYYXYYYXYYYXYYYXYYYXYYYXYXWWXXWWXXWWXXYYXYYXYYYXYYYXYYYX       ",
"       YYzzzzzzzYYYYYYYYYYYYYYYYYYYYYYYYYYYYYYYYYYYYYYYYYYYYYYYYYYYYYYYYYYYYYYYYYYYYYYYYYYYYXYYYXYYYXYYYXYYYXYXXYYYYYYYYY       ",
"       YYzzzzzzzYYXXWWxxVVVVUUTTSSwwwttttvvRRRRQQrrrrsssAAooooppnnpppppoooooAAAssssrrrrQQRRRRRvvtttwSSTUVVVxWWXYYYYYYYYYY       ",
"       zzzzzzzzzzYXXWxVVUTTSwtttRRQrrrrsAAopnnnDmmPkjjjjiCBBhhhhgghhhhhhhhBBBiijCjjjkPmmDnnnpAAsrrQQvttwSTVVxXYYYYYYYYYzz       ",
"        zzzzzzzzzzzYYYYYYYYYYYYYYYYYYYYYXXXXYXXXXXXXXXXWWWWWWWWWWWWWWWWWWWWWWWWWWXXXXXXXXXXXXXYYYYYYYYYYYYYYYzzzzzzzzzzz        ",
"        zzzzWWWWxxxxxxxWxxxVVVVVVVVVVVVVVVVVVVVVVVVVVVVVVVVVVVVVVVVVVVVVVVVVVVVVVVVVVVVVVVVVVVVVVVVVVxxxWxxxxxxxWWWWzzzz        ",
"         zzzYYYYYYYYYY                                                                                     YYYYYYYYYzzz         ",
"          zzzzzzzzzzzz                                                                                    zzzzzzzzzzzz          ",
"                                                                                                                                ",
"                                                                                                                                ",
"                                                                                                                                ",
"                                                                                                                                ",
"                                                                                                                                ",
"                                                                                                                                ",
"                                                                                                                                ",
"                                                                                                                                ",
"                                                                                                                                ",
"                                                                                                                                ",
"                                                                                                                                ",
"                                                                                                                                ",
"                                                                                                                                ",
"                                                                                                                                "};
