/* XPM */
static char * xterm_xpm[] = {
"20 20 44 1",
" 	c None",
".	c #F3F3F3",
"+	c #FBFBFB",
"@	c #F5F5F5",
"#	c #030303",
"$	c #000000",
"%	c #F2F2F2",
"&	c #EFEFEF",
"*	c #888888",
"=	c #737373",
"-	c #ECECEC",
";	c #979797",
">	c #757575",
",	c #ECECED",
"'	c #E8E8E9",
")	c #787878",
"!	c #F0F0F0",
"~	c #858585",
"{	c #E9E9E9",
"]	c #E4E4E5",
"^	c #777777",
"/	c #EAEAEA",
"(	c #848484",
"_	c #E5E5E5",
":	c #E0E0E1",
"<	c #8C8C8C",
"[	c #E1E1E1",
"}	c #DCDCDC",
"|	c #7C7C7C",
"1	c #6E6E6E",
"2	c #DCDCDD",
"3	c #D7D7D8",
"4	c #EEEEEE",
"5	c #D2D2D3",
"6	c #CDCDCE",
"7	c #CECECF",
"8	c #C8C8C9",
"9	c #C2C2C3",
"0	c #C3C3C3",
"a	c #BCBCBD",
"b	c #020202",
"c	c #BDBDBD",
"d	c #B9B9BA",
"e	c #BFBFBF",
"                    ",
"                    ",
".++++++++++++++++++.",
"@#$$$$$$$$$$$$$$$$#@",
"%$$$$$$$$$$$$$$$$$$%",
"&$$*=$$$$$$$$$$$$$$&",
"-$$;@>$$$$$$$$$$$$$,",
"'$$$)!~$$$$$$$$$$$${",
"]$$$^/($$$$$$$$$$$$_",
":$$<_^$$$$$$$$$$$$$[",
"}$$|1$$$$$$$$$$$$$$2",
"3$$$$$$4444$$$$$$$$3",
"5$$$$$$$$$$$$$$$$$$5",
"6$$$$$$$$$$$$$$$$$$7",
"8$$$$$$$$$$$$$$$$$$8",
"9$$$$$$$$$$$$$$$$$$0",
"ab$$$$$$$$$$$$$$$$bc",
"deeeeeeeeeeeeeeeeeed",
"$$$$$$$$$$$$$$$$$$$$",
"                    "};
