/* XPM */
static char * linux_xpm[] = {
"41 22 151 2",
"  	c None",
". 	c #EDEDED",
"+ 	c #ECEDED",
"@ 	c #EDECED",
"# 	c #ECECED",
"$ 	c #ECEDEC",
"% 	c #EDEDEC",
"& 	c #ECECEC",
"* 	c #EDECEC",
"= 	c #ECEBEC",
"- 	c #EBEBEB",
"; 	c #EBECEB",
"> 	c #EBEBEC",
", 	c #ECECEB",
"' 	c #EBECEC",
") 	c #ECEBEB",
"! 	c #EAEBEA",
"~ 	c #EAEBEB",
"{ 	c #EAEAEA",
"] 	c #EBEAEA",
"^ 	c #EAEAEB",
"/ 	c #EBEBEA",
"( 	c #DEDEDE",
"_ 	c #AE9555",
": 	c #CCAA55",
"< 	c #CDAC55",
"[ 	c #AD9455",
"} 	c #E1E2E2",
"| 	c #EAEAE9",
"1 	c #E9EAEA",
"2 	c #B6A26A",
"3 	c #FAC32D",
"4 	c #FFBD09",
"5 	c #FFBC07",
"6 	c #FAC32E",
"7 	c #AC9454",
"8 	c #EAE9EA",
"9 	c #E9E9E9",
"0 	c #EAE9E9",
"a 	c #E9E9EA",
"b 	c #E9EAE9",
"c 	c #C8A94D",
"d 	c #FFC00A",
"e 	c #FFBF07",
"f 	c #C4940B",
"g 	c #F8BA08",
"h 	c #C7A84D",
"i 	c #E8E9E9",
"j 	c #E8E8E9",
"k 	c #E9E8E8",
"l 	c #E9E8E9",
"m 	c #C7A94A",
"n 	c #FFC109",
"o 	c #DAA70E",
"p 	c #594C25",
"q 	c #92741A",
"r 	c #FFC108",
"s 	c #E8E8E8",
"t 	c #E8E9E8",
"u 	c #C6A947",
"v 	c #FFC40A",
"w 	c #6D5A20",
"x 	c #F0BC17",
"y 	c #776325",
"z 	c #E8B30B",
"A 	c #FFC409",
"B 	c #EAB40B",
"C 	c #796525",
"D 	c #F2BD17",
"E 	c #6C5A20",
"F 	c #E7E7E7",
"G 	c #E7E7E8",
"H 	c #E8E8E7",
"I 	c #E8E7E8",
"J 	c #E7E8E8",
"K 	c #E7E8E7",
"L 	c #C5A744",
"M 	c #FFC60A",
"N 	c #FFCA19",
"O 	c #FFC609",
"P 	c #FFC814",
"Q 	c #FFC70F",
"R 	c #E8E7E7",
"S 	c #E6E7E7",
"T 	c #C4A641",
"U 	c #FFC90B",
"V 	c #FFC90A",
"W 	c #E7E6E6",
"X 	c #E6E6E7",
"Y 	c #E6E6E6",
"Z 	c #E7E6E7",
"` 	c #E6E7E6",
" .	c #C2A63E",
"..	c #FFCB0B",
"+.	c #FFCB0A",
"@.	c #E6E6E5",
"#.	c #E5E5E5",
"$.	c #E5E6E6",
"%.	c #E6E5E6",
"&.	c #C2A73B",
"*.	c #FFCE0C",
"=.	c #FFCE0B",
"-.	c #E5E6E5",
";.	c #C0A739",
">.	c #FFD00D",
",.	c #FFD00C",
"'.	c #977F19",
").	c #64561B",
"!.	c #C0A63A",
"~.	c #E5E5E6",
"{.	c #E6E5E5",
"].	c #E4E5E5",
"^.	c #E5E5E4",
"/.	c #E5E4E4",
"(.	c #E4E5E4",
"_.	c #A7974A",
":.	c #F9CF10",
"<.	c #FFD30C",
"[.	c #FFD61C",
"}.	c #FFD724",
"|.	c #F8CE10",
"1.	c #A5954B",
"2.	c #E4E4E5",
"3.	c #E5E4E5",
"4.	c #E4E4E4",
"5.	c #DADADA",
"6.	c #A29347",
"7.	c #BCA333",
"8.	c #BDA632",
"9.	c #A19348",
"0.	c #D6D6D6",
"a.	c #E4E4E3",
"b.	c #E4E3E4",
"c.	c #E3E3E3",
"d.	c #E4E3E3",
"e.	c #E3E3E4",
"f.	c #E3E4E4",
"g.	c #E3E4E3",
"h.	c #E2E3E3",
"i.	c #E3E2E3",
"j.	c #E3E3E2",
"k.	c #E3E2E2",
"l.	c #E2E2E3",
"m.	c #E2E2E2",
"n.	c #E2E3E2",
"o.	c #E1E1E2",
"p.	c #E2E1E2",
"q.	c #E1E1E1",
"r.	c #E2E2E1",
"s.	c #E2E1E1",
"t.	c #E1E2E1",
". . . . . . . . . . . . . . . . . . . . . . . . . . . . . . . . . . . . . . . . . ",
". . + + + @ # @ @ . . . + . @ . . . $ . @ . @ . . % . . % # . @ % $ + . . % @ % . ",
"& * % & * & & $ & & $ & & & * @ $ & & & # & # & & & & * & & & & & * & & # & & & & ",
"= - ; > & = , ; & = ; = > ; , ' , & ) ; > ' & & > & & & & ) ' = = , ' ; & ' & = , ",
"> - - - - ; ) - - - - - ) > - - - - - - - - > ) - - - - - - - - - - - - - - - - - ",
"! ~ { ! ] ! { ^ ! / ] ( _ : < < < < < < < < : [ } - ] ! ~ - ! - ^ - { ~ { ! { ^ ] ",
"{ | { { { 1 | | { { 1 2 3 4 5 5 5 5 5 5 5 5 4 6 7 { | 1 { { { { { { { { { { 8 { { ",
"9 9 9 9 0 9 a 0 b 0 0 c d e f g e e e e g f e d h 9 0 b a 1 { 9 9 9 { 9 b 1 | | 9 ",
"i j i 9 9 k 9 l l i i m n o p q r r r r q p o n m l j j i 9 s l i l l 9 i 9 i 9 9 ",
"s s t s s s j l s t s u v w x y z A A B C D E v u s s s k s s s s s s t s s s s s ",
"s F G H I J G I s K K L M N O P Q O O Q P O N M L G I s G K H J J s K G R s I s F ",
"S F F F S F F F F F F T U V V V V V V V V V V U T F F F F F F F F F F F F F F F F ",
"W X F X W S Y Z Y Y `  ...+.+.+.+.+.+.+.+.+.+... .F Y X Y F Y Y Y S ` S Y Y Y Y Y ",
"@.@.Y Y #.Y Y #.$.@.%.&.*.=.=.=.=.=.=.=.=.=.=.*.&.Y $.%.Y Y Y %.Y Y $.Y $.Y Y Y Y ",
"#.#.#.#.#.%.#.#.$.-.#.;.>.,.,.,.'.).).'.,.,.,.>.!.%.-.~.#.#.#.#.~.#.~.#.~.#.@.~.{.",
"].^./.#.#.].].^.(.].(._.:.<.<.<.[.}.}.[.<.<.<.|.1.2.(.#./.3.3.].^.3.3./.4.#.].#./.",
"4.4.4.4.4.4.4.4.4.^.4.5.6.7.8.8.8.8.8.8.8.8.7.9.0.4.4.4./.4.4.(.4.(.4.4.4.4.4.4.4.",
"a.a.4.b.a.c.d.e.e.d.a.f.e.a.d.d.a.g.a.g.f.g.a.b.d.c.c.c.c.a.d.f.d.c.b.f.4.e.d.c.a.",
"c.c.c.c.c.h.h.i.j.c.j.c.c.i.c.c.k.c.c.j.h.c.c.c.i.c.c.c.c.c.h.c.c.c.h.c.c.c.c.c.c.",
"i.l.m.m.m.k.j.h.n.n.m.m.h.m.i.n.m.j.m.m.m.m.l.j.i.n.l.j.l.h.c.n.m.l.k.m.l.n.m.l.k.",
"o.} m.} m.m.m.m.m.m.p.} m.p.m.p.p.p.m.m.} m.q.m.m.p.} r.m.p.m.m.s.o.} m.} s.m.m.p.",
"q.t.q.q.q.r.q.o.o.q.r.s.q.q.t.q.q.t.q.q.s.q.o.t.q.q.s.p.t.q.q.o.q.q.q.q.q.s.p.s.} "};
