/* XPM */
static char *collapse[] = {
/* columns rows colors chars-per-pixel */
"15 14 2 1 ",
"  c gray40",
". c None",
/* pixels */
"...............",
"...............",
"...............",
"...... ........",
"......  .......",
"......   ......",
"......    .....",
"......   ......",
"......  .......",
"...... ........",
"...............",
"...............",
"...............",
"..............."
};
