/* XPM */
static char *desktop[] = {
/* columns rows colors chars-per-pixel */
"24 16 2 1 ",
"  c gray60",
". c None",
/* pixels */
"........................",
"........................",
"........................",
".......          .......",
".......          .......",
".......  ...............",
".......  .        ......",
".......  .        ......",
".......  .        ......",
".......  .        ......",
".......  .        ......",
".......  .        ......",
".......  .        ......",
"..........        ......",
"........................",
"........................"
};
