/* XPM */
static char *linux[] = {
/* columns rows colors chars-per-pixel */
"39 16 2 1 ",
"  c gray40",
". c None",
/* pixels */
".......................................",
".......................................",
"..............  ...  ...  .............",
"..............  ...  ...  .............",
".......................................",
".......................................",
".......................................",
"..............  ...  ...  .............",
"..............  ...  ...  .............",
".......................................",
".......................................",
".......................................",
"..............  ...  ...  .............",
"..............  ...  ...  .............",
".......................................",
"......................................."
};
