/* XPM */
static char * hide_xpm[] = {
"19 19 3 1",
" 	c None",
".	c #EEEEEC",
"+	c #454D54",
"...................",
"...................",
"...................",
"...................",
"...................",
".........+.........",
".........+.........",
".........+.........",
".........+.........",
".....+++++++++.....",
".........+.........",
".........+.........",
".........+.........",
".........+.........",
"...................",
"...................",
"...................",
"...................",
"..................."};
