/* XPM */
static char * n3_xpm[] = {
"10 20 5 1",
" 	c None",
".	c #080808",
"+	c #1E1E1E",
"@	c #AAAAAA",
"#	c #414141",
"..........",
"..........",
"..........",
"..........",
"...++++...",
"..+@#@#+..",
"...++++@..",
"......+#+.",
"......+@+.",
"...++++#+.",
"..+@#@#@..",
"...++++#+.",
"......+@+.",
"......+#+.",
"...++++@+.",
"..+#@#@+..",
"...++++...",
"..........",
"..........",
".........."};
