/* XPM */
static char * p_xpm[] = {
"10 20 6 1",
" 	c None",
".	c #080808",
"+	c #1C1C1C",
"@	c #AAAAAA",
"#	c #414141",
"$	c #1E1E1E",
"..........",
"..........",
"..........",
"..........",
"...++++...",
"..+@#@#+..",
".+#$$$$@..",
".+@$..$#+.",
".+#$..$@+.",
".+@$$$$#+.",
"..#@#@#+..",
".+@++++...",
".+#+......",
".+@+......",
".+#+......",
".+@+......",
"..+.......",
"..........",
"..........",
".........."};
