/* XPM */
static char * depthO_xpm[] = {
"18 36 5 1",
" 	c None",
".	c #454D54",
"+	c #EEEEEC",
"@	c #729FCF",
"#	c #888A85",
"..................",
"..................",
"..................",
"..................",
".....+++..+++.....",
".....+++..+++.....",
".....+++..+++.....",
"..................",
"..................",
".....+++..+++.....",
".....+++..+++.....",
".....+++..+++.....",
"..................",
"..................",
"..................",
"..................",
"..................",
"@@@@@@@@@@@@@@@@@@",
"..................",
"..................",
"..................",
"..................",
".....###..###.....",
".....###..###.....",
".....###..###.....",
"..................",
"..................",
".....###..###.....",
".....###..###.....",
".....###..###.....",
"..................",
"..................",
"..................",
"..................",
"..................",
"@@@@@@@@@@@@@@@@@@"};
