/* XPM */
static char * hideA_xpm[] = {
"18 36 4 1",
" 	c None",
".	c #BABDB6",
"+	c #555753",
"@	c #729FCF",
"..................",
"..................",
"..................",
"..................",
"........++........",
"........++........",
"........++........",
".....++++++++.....",
".....++++++++.....",
"........++........",
"........++........",
"........++........",
"..................",
"..................",
"..................",
"..................",
"..................",
"@@@@@@@@@@@@@@@@@@",
"..................",
"..................",
"..................",
"..................",
"..................",
"..................",
"..................",
"..................",
"..................",
"..................",
"..................",
"..................",
"..................",
"..................",
"..................",
"..................",
"..................",
"@@@@@@@@@@@@@@@@@@"};
