/* XPM */
static char * rollupA_xpm[] = {
"18 36 4 1",
" 	c None",
".	c #454D54",
"+	c #FCFCFC",
"@	c #729FCF",
"..................",
"..................",
"..................",
"..................",
"........++........",
".......++++.......",
"......++++++......",
".....+++..+++.....",
".....++....++.....",
".....+......+.....",
"........++........",
"........++........",
"..................",
"..................",
"..................",
"..................",
"..................",
"@@@@@@@@@@@@@@@@@@",
"..................",
"..................",
"..................",
"..................",
"..................",
"..................",
"..................",
"..................",
"..................",
"..................",
"..................",
"..................",
"..................",
"..................",
"..................",
"..................",
"..................",
"@@@@@@@@@@@@@@@@@@"};
