/* XPM */
static char * titleIB_xpm[] = {
"4 18 3 1",
" 	c None",
".	c #BABDB6",
"+	c #204A87",
"....",
"....",
"....",
"....",
"....",
"....",
"....",
"....",
"....",
"....",
"....",
"....",
"....",
"....",
"....",
"....",
"....",
"++++"};
