/* XPM */
static char * titleAB_xpm[] = {
"4 22 3 1",
" 	c None",
".	c #454D54",
"+	c #729FCF",
"....",
"....",
"....",
"....",
"....",
"....",
"....",
"....",
"....",
"....",
"....",
"....",
"....",
"....",
"....",
"....",
"....",
"....",
"....",
"....",
"....",
"++++"};
