/* XPM */
static char * m_xpm[] = {
"16 20 5 1",
" 	c None",
".	c #080808",
"+	c #1E1E1E",
"@	c #414141",
"#	c #AAAAAA",
"................",
"................",
"................",
"................",
"................",
"................",
"................",
"................",
"................",
"...++++.++++....",
"..+@#@#+#@#@+...",
".+#++++@++++#+..",
".+@+..+#+..+@+..",
".+#+..+@+..+#+..",
".+@+..+#+..+@+..",
".+#+..+@+..+#+..",
"..+....+....+...",
"................",
"................",
"................"};
