/* XPM */
static char * linux_xpm[] = {
"39 20 3 1",
" 	c None",
".	c #222222",
"+	c #EEEEEC",
".......................................",
".......................................",
".......................................",
".......................................",
".............++...++...++..............",
".............++...++...++..............",
".......................................",
".......................................",
".......................................",
".............++...++...++..............",
".............++...++...++..............",
".......................................",
".......................................",
".......................................",
".............++...++...++..............",
".............++...++...++..............",
".......................................",
".......................................",
".......................................",
"......................................."};
