/* XPM */
static char * depthA_xpm[] = {
"18 36 4 1",
" 	c None",
".	c #080808",
"+	c #E2E2E2",
"@	c #606060",
"..................",
"..................",
"..................",
"..................",
".....+++..+++.....",
".....+++..+++.....",
".....+++..+++.....",
"..................",
"..................",
".....+++..+++.....",
".....+++..+++.....",
".....+++..+++.....",
"..................",
"..................",
"..................",
"..................",
"..................",
"@@@@@@@@@@@@@@@@@@",
"..................",
"..................",
"..................",
"..................",
"..................",
"..................",
"..................",
"..................",
"..................",
"..................",
"..................",
"..................",
"..................",
"..................",
"..................",
"..................",
"..................",
"@@@@@@@@@@@@@@@@@@"};
