/* XPM */
static char * depthI_xpm[] = {
"18 36 4 1",
" 	c None",
".	c #080808",
"+	c #636363",
"@	c #606060",
"..................",
"..................",
"..................",
"..................",
".....+++..+++.....",
".....+++..+++.....",
".....+++..+++.....",
"..................",
"..................",
".....+++..+++.....",
".....+++..+++.....",
".....+++..+++.....",
"..................",
"..................",
"..................",
"..................",
"..................",
"@@@@@@@@@@@@@@@@@@",
"..................",
"..................",
"..................",
"..................",
"..................",
"..................",
"..................",
"..................",
"..................",
"..................",
"..................",
"..................",
"..................",
"..................",
"..................",
"..................",
"..................",
"@@@@@@@@@@@@@@@@@@"};
