/* XPM */
static char * frameITR_xpm[] = {
"22 21 2 1",
" 	c None",
".	c #606060",
"......................",
"                     .",
"                     .",
"                     .",
"                     .",
"                     .",
"                     .",
"                     .",
"                     .",
"                     .",
"                     .",
"                     .",
"                     .",
"                     .",
"                     .",
"                     .",
"                     .",
"                     .",
"                     .",
"                     .",
"                     ."};
