/* XPM */
static char * menusel_xpm[] = {
"4 25 4 1",
" 	c None",
".	c #A1A7A7",
"+	c #0087FF",
"@	c #A1A6AA",
"....",
"++++",
"++++",
"++++",
"++++",
"++++",
"++++",
"++++",
"++++",
"++++",
"++++",
"++++",
"++++",
"++++",
"++++",
"++++",
"++++",
"++++",
"++++",
"++++",
"++++",
"++++",
"++++",
"++++",
"@@@@"};
