/* XPM */
static char * menuButtonO_xpm[] = {
"18 36 5 1",
" 	c None",
".	c #080808",
"+	c #B0B0B0",
"@	c #606060",
"#	c #5E5E5E",
"..................",
"..................",
"..................",
"..................",
"..................",
"......++++++......",
"......++++++......",
"......++++++......",
"......++++++......",
"......++++++......",
"......++++++......",
"..................",
"..................",
"..................",
"..................",
"..................",
"..................",
"@@@@@@@@@@@@@@@@@@",
"..................",
"..................",
"..................",
"..................",
"..................",
"......######......",
"......######......",
"......######......",
"......######......",
"......######......",
"......######......",
"..................",
"..................",
"..................",
"..................",
"..................",
"..................",
"@@@@@@@@@@@@@@@@@@"};
