/* XPM */
static char * closeO_xpm[] = {
"18 36 5 1",
" 	c None",
".	c #263238",
"+	c #616161",
"@	c #304FFE",
"#	c #212121",
"..................",
"..................",
"..................",
"..................",
".....++....++.....",
".....+++..+++.....",
"......++++++......",
".......++++.......",
".......++++.......",
"......++++++......",
".....+++..+++.....",
".....++....++.....",
"..................",
"..................",
"..................",
"..................",
"..................",
"@@@@@@@@@@@@@@@@@@",
"..................",
"..................",
"..................",
"..................",
".....##....##.....",
".....###..###.....",
"......######......",
".......####.......",
".......####.......",
"......######......",
".....###..###.....",
".....##....##.....",
"..................",
"..................",
"..................",
"..................",
"..................",
"@@@@@@@@@@@@@@@@@@"};
