/* XPM */
static char * frameABL_xpm[] = {
"22 21 2 1",
" 	c None",
".	c #304FFE",
".                     ",
".                     ",
".                     ",
".                     ",
".                     ",
".                     ",
".                     ",
".                     ",
".                     ",
".                     ",
".                     ",
".                     ",
".                     ",
".                     ",
".                     ",
".                     ",
".                     ",
".                     ",
".                     ",
".                     ",
"......................"};
