/* XPM */
static char * frameITL_xpm[] = {
"22 21 2 1",
" 	c None",
".	c #1A237E",
"......................",
".                     ",
".                     ",
".                     ",
".                     ",
".                     ",
".                     ",
".                     ",
".                     ",
".                     ",
".                     ",
".                     ",
".                     ",
".                     ",
".                     ",
".                     ",
".                     ",
".                     ",
".                     ",
".                     ",
".                     "};
