/* XPM */
static char * menuButtonO_xpm[] = {
"18 36 5 1",
" 	c None",
".	c #253137",
"+	c #616161",
"@	c #606060",
"#	c #212121",
"..................",
"..................",
"..................",
"..................",
"..................",
"......++++++......",
"......++++++......",
"......++++++......",
"......++++++......",
"......++++++......",
"......++++++......",
"..................",
"..................",
"..................",
"..................",
"..................",
"..................",
"@@@@@@@@@@@@@@@@@@",
"..................",
"..................",
"..................",
"..................",
"..................",
"......######......",
"......######......",
"......######......",
"......######......",
"......######......",
"......######......",
"..................",
"..................",
"..................",
"..................",
"..................",
"..................",
"@@@@@@@@@@@@@@@@@@"};
