/* XPM */
static char * rolldownA_xpm[] = {
"18 36 4 1",
" 	c None",
".	c #253137",
"+	c #E2E2E2",
"@	c #304FFE",
"..................",
"..................",
"..................",
"..................",
"........++........",
"........++........",
".....+......+.....",
".....++....++.....",
".....+++..+++.....",
"......++++++......",
".......++++.......",
"........++........",
"..................",
"..................",
"..................",
"..................",
"..................",
"@@@@@@@@@@@@@@@@@@",
"..................",
"..................",
"..................",
"..................",
"..................",
"..................",
"..................",
"..................",
"..................",
"..................",
"..................",
"..................",
"..................",
"..................",
"..................",
"..................",
"..................",
"@@@@@@@@@@@@@@@@@@"};
