/* XPM */
static char * frameABL_xpm[] = {
"18 18 3 1",
" 	c None",
".	c #51A0F3",
"+	c #62A4E8",
".                 ",
".                 ",
".                 ",
".                 ",
".                 ",
".                 ",
".                 ",
".                 ",
".                 ",
".                 ",
".                 ",
".                 ",
".                 ",
".                 ",
".                 ",
".                 ",
".                 ",
"+................."};
