/* XPM */
static char * frameABR_xpm[] = {
"18 18 2 1",
" 	c None",
".	c #51A0F3",
"                 .",
"                 .",
"                 .",
"                 .",
"                 .",
"                 .",
"                 .",
"                 .",
"                 .",
"                 .",
"                 .",
"                 .",
"                 .",
"                 .",
"                 .",
"                 .",
"                 .",
".................."};
