/* XPM */
static char * frameITR_xpm[] = {
"18 18 3 1",
" 	c None",
".	c #AFC5D4",
"+	c #85A2B5",
"..................",
"                 +",
"                 +",
"                 +",
"                 +",
"                 +",
"                 +",
"                 +",
"                 +",
"                 +",
"                 +",
"                 +",
"                 +",
"                 +",
"                 +",
"                 +",
"                 +",
"                 +"};
