/* XPM */
static char * frameATR_xpm[] = {
"18 18 4 1",
" 	c None",
".	c #7DB8F4",
"+	c #51A0F3",
"@	c #62A4E8",
"..................",
"++++++++++++++++++",
"                 +",
"                 +",
"                 @",
"                 +",
"                 +",
"                 +",
"                 +",
"                 +",
"                 +",
"                 +",
"                 +",
"                 +",
"                 +",
"                 +",
"                 +",
"                 +"};
