/* XPM */
static char * frameITL_xpm[] = {
"22 21 3 1",
" 	c None",
".	c #878787",
"+	c #404040",
"......................",
"++++++++++++++++++++++",
"+                     ",
"+                     ",
"+                     ",
"+                     ",
"+                     ",
"+                     ",
"+                     ",
"+                     ",
"+                     ",
"+                     ",
"+                     ",
"+                     ",
"+                     ",
"+                     ",
"+                     ",
"+                     ",
"+                     ",
"+                     ",
"+                     "};
