/* XPM */
static char * closeO_xpm[] = {
"26 48 5 1",
" 	c None",
".	c #7DB8F4",
"+	c #FDFDFD",
"@	c #FFFFFF",
"#	c #EEEEEE",
"..........................",
"..........................",
"..........................",
"..........................",
"..........................",
"..........................",
"..........................",
"..........................",
".........++....++.........",
".........@@@..@@@.........",
"..........@@@@@@..........",
"...........@@@@...........",
"...........@@@@...........",
"..........@@@@@@..........",
".........@@@..@@@.........",
".........++....++.........",
"..........................",
"..........................",
"..........................",
"..........................",
"..........................",
"..........................",
"..........................",
"..........................",
"##########################",
"##########################",
"##########################",
"##########################",
"##########################",
"##########################",
"##########################",
"##########################",
"#########..####..#########",
"#########...##...#########",
"##########......##########",
"###########....###########",
"###########....###########",
"##########......##########",
"#########...##...#########",
"#########..####..#########",
"##########################",
"##########################",
"##########################",
"##########################",
"##########################",
"##########################",
"##########################",
"##########################"};
