/* XPM */
static char * frameITR_xpm[] = {
"18 18 3 1",
" 	c None",
".	c #878787",
"+	c #404040",
"..................",
"++++++++++++++++++",
"                 +",
"                 +",
"                 +",
"                 +",
"                 +",
"                 +",
"                 +",
"                 +",
"                 +",
"                 +",
"                 +",
"                 +",
"                 +",
"                 +",
"                 +",
"                 +"};
