/* XPM */
static char * a_xpm[] = {
"10 20 6 1",
" 	c None",
".	c #2D2D2D",
"+	c #3B3B3B",
"@	c #3B4422",
"#	c #A3BF51",
"$	c #728242",
".+.+.+.+.+",
"..........",
".+.+.+.+.+",
"..........",
".+.@@@@+.+",
"..@#$#$@..",
".@$@@@@#.+",
".@#@..@$@.",
".@$@.+@#@+",
".@#@@@@$@.",
".+$#$#$#.+",
".@#@@@@$@.",
".@$@.+@#@+",
".@#@..@$@.",
".@$@.+@#@+",
".@#@..@$@.",
".+@+.+.@.+",
"..........",
".+.+.+.+.+",
".........."};
