/* XPM */
static char * colon_xpm[] = {
"4 20 5 1",
" 	c None",
".	c #2D2D2D",
"+	c #3B3B3B",
"@	c #3B4422",
"#	c #A3BF51",
"....",
"....",
".+.+",
"....",
".+.+",
"....",
".+.+",
"..@.",
".@#@",
"..@.",
".+.+",
"....",
".+@+",
".@#@",
".+@+",
"....",
".+.+",
"....",
".+.+",
"...."};
