/* XPM */
static char * linux_xpm[] = {
"39 20 2 1",
" 	c None",
".	c #585858",
"                                       ",
"                                       ",
"                                       ",
"                                       ",
"             ..   ..   ..              ",
"             ..   ..   ..              ",
"                                       ",
"                                       ",
"                                       ",
"             ..   ..   ..              ",
"             ..   ..   ..              ",
"                                       ",
"                                       ",
"                                       ",
"             ..   ..   ..              ",
"             ..   ..   ..              ",
"                                       ",
"                                       ",
"                                       ",
"                                       "};
