/* XPM */
static char * windows_xpm[] = {
"24 20 2 1",
" 	c None",
".	c #585858",
"                        ",
"                        ",
"                        ",
"                        ",
"       ..........       ",
"       .        .       ",
"       .        ...     ",
"       .        . .     ",
"       .        . .     ",
"       .        . .     ",
"       .        . .     ",
"       .        . .     ",
"       .        . .     ",
"       .......... .     ",
"         .        .     ",
"         ..........     ",
"                        ",
"                        ",
"                        ",
"                        "};
