/* XPM */
static char * dframeATR_xpm[] = {
"22 21 2 1",
" 	c None",
".	c #729FCF",
"......................",
"                     .",
"                     .",
"                     .",
"                     .",
"                     .",
"                     .",
"                     .",
"                     .",
"                     .",
"                     .",
"                     .",
"                     .",
"                     .",
"                     .",
"                     .",
"                     .",
"                     .",
"                     .",
"                     .",
"                     ."};
