/* XPM */
static char * restoreO_xpm[] = {
"18 48 5 1",
" 	c None",
".	c #EEEEEC",
"+	c #000000",
"@	c #729FCF",
"#	c #888A85",
"..................",
"..................",
"..................",
"..................",
"..................",
"..................",
"..................",
"........++........",
".......++++.......",
"......++++++......",
".....+++..+++.....",
".....++....++.....",
".....+......+.....",
"..................",
".....++++++++.....",
"..................",
"..................",
"..................",
"..................",
"..................",
"..................",
"..................",
"..................",
"@@@@@@@@@@@@@@@@@@",
"..................",
"..................",
"..................",
"..................",
"..................",
"..................",
"..................",
"........##........",
".......####.......",
"......######......",
".....###..###.....",
".....##....##.....",
".....#......#.....",
"..................",
".....########.....",
"..................",
"..................",
"..................",
"..................",
"..................",
"..................",
"..................",
"..................",
"@@@@@@@@@@@@@@@@@@"};
