/* XPM */
static char * windows_xpm[] = {
"24 20 9 1",
" 	c None",
".	c #F1F1F1",
"+	c #B6C4D1",
"@	c #B8C6D2",
"#	c #B8C6D1",
"$	c #B9C6D1",
"%	c #B2C0CD",
"&	c #080808",
"*	c #A9C2D7",
"                        ",
"                        ",
"                        ",
"                        ",
"       ..........       ",
"       ..........       ",
"       .+@@@@#$%...     ",
"       .&&&&&&&&...     ",
"       .&&&&&&&&.*.     ",
"       .&&&&&&&&.&.     ",
"       .&&&&&&&&.&.     ",
"       .&&&&&&&&.&.     ",
"       .&&&&&&&&.&.     ",
"       ..........&.     ",
"         .&&&&&&&&.     ",
"         ..........     ",
"                        ",
"                        ",
"                        ",
"                        "};
