/* XPM */
static char * hide_xpm[] = {
"17 17 3 1",
" 	c None",
".	c #EEEEEC",
"+	c #454D54",
".................",
".................",
".................",
".................",
"........+........",
"........+........",
"........+........",
"........+........",
"....+++++++++....",
"........+........",
"........+........",
"........+........",
"........+........",
".................",
".................",
".................",
"................."};
