/* XPM */
static char * minimize_xpm[] = {
"19 19 3 1",
" 	c None",
".	c #EEEEEC",
"+	c #454D54",
"...................",
"...................",
"...................",
"...................",
"...................",
"...................",
"...................",
"...................",
"...................",
"...................",
"...................",
"...................",
"...................",
"...................",
"....+++++++++++....",
"...................",
"...................",
"...................",
"..................."};
