/* XPM */
static char * titleAB_xpm[] = {
"4 24 3 1",
" 	c None",
".	c #EEEEEC",
"+	c #729FCF",
"....",
"....",
"....",
"....",
"....",
"....",
"....",
"....",
"....",
"....",
"....",
"....",
"....",
"....",
"....",
"....",
"....",
"....",
"....",
"....",
"....",
"....",
"....",
"++++"};
