/* XPM */
static char * mail_xpm[] = {
"16 16 4 1",
" 	c None",
".	c #673AB7",
"+	c #9575CD",
"@	c #311B92",
"                ",
"                ",
"                ",
"                ",
"   ..........   ",
"   .++++++++.   ",
"   ..++++++..   ",
"   .@.++++.@.   ",
"   .@@.++.@@.   ",
"   .@@@..@@@.   ",
"   .@@@@@@@@.   ",
"   ..........   ",
"                ",
"                ",
"                ",
"                "};
