/* XPM */
static char * back_base_xpm[] = {
"10 20 3 1",
" 	c None",
".	c #2D2D2D",
"+	c #3B3B3B",
".+.+.+.+.+",
"..........",
".+.+.+.+.+",
"..........",
".+.+.+.+.+",
"..........",
".+.+.+.+.+",
"..........",
".+.+.+.+.+",
"..........",
".+.+.+.+.+",
"..........",
".+.+.+.+.+",
"..........",
".+.+.+.+.+",
"..........",
".+.+.+.+.+",
"..........",
".+.+.+.+.+",
".........."};
