/* XPM */
static char * collapse_xpm[] = {
"10 20 3 1",
" 	c None",
".	c #2D2D2D",
"+	c #D8F387",
".         ",
"          ",
"          ",
"          ",
"          ",
"          ",
"          ",
" +   +    ",
"  +   +   ",
"   +   +  ",
"    +   + ",
"    +   + ",
"   +   +  ",
"  +   +   ",
" +   +    ",
"          ",
"          ",
"          ",
"          ",
"          "};
