/* XPM */
static char * icewm_xpm[] = {
"60 20 116 2",
"  	c None",
". 	c #2D2D2D",
"+ 	c #252525",
"@ 	c #4D4D4D",
"# 	c #676767",
"$ 	c #2F2F2F",
"% 	c #3D3D3D",
"& 	c #3A3A3A",
"* 	c #4E4E4E",
"= 	c #303030",
"- 	c #343434",
"; 	c #4C4C4C",
"> 	c #A3BF51",
", 	c #92A950",
"' 	c #4C4C4B",
") 	c #313131",
"! 	c #4A4A4A",
"~ 	c #656E4B",
"{ 	c #666F4B",
"] 	c #323232",
"^ 	c #3C3C3C",
"/ 	c #494949",
"( 	c #91A94E",
"_ 	c #494948",
": 	c #92A94E",
"< 	c #464646",
"[ 	c #97B04E",
"} 	c #626B48",
"| 	c #636C49",
"1 	c #4D5047",
"2 	c #7C8C4C",
"3 	c #96B04E",
"4 	c #A1BB4F",
"5 	c #9AB450",
"6 	c #83964C",
"7 	c #545847",
"8 	c #606848",
"9 	c #889B4D",
"0 	c #9BB64F",
"a 	c #A0BA4F",
"b 	c #94AA4E",
"c 	c #6E794A",
"d 	c #333333",
"e 	c #616D3F",
"f 	c #8DA44B",
"g 	c #343433",
"h 	c #616C40",
"i 	c #3F4136",
"j 	c #97B04D",
"k 	c #9CB74E",
"l 	c #464B39",
"m 	c #636F40",
"n 	c #A1BD50",
"o 	c #363636",
"p 	c #383836",
"q 	c #96AF4D",
"r 	c #565F3E",
"s 	c #57603D",
"t 	c #788946",
"u 	c #707F44",
"v 	c #424638",
"w 	c #373836",
"x 	c #3D3F37",
"y 	c #626E40",
"z 	c #839748",
"A 	c #3C3D37",
"B 	c #3E4037",
"C 	c #748445",
"D 	c #91A84B",
"E 	c #A0BD4F",
"F 	c #353535",
"G 	c #373737",
"H 	c #636F41",
"I 	c #373736",
"J 	c #8EA44B",
"K 	c #636E41",
"L 	c #9DB74F",
"M 	c #535B3D",
"N 	c #3C3E38",
"O 	c #9FBB4F",
"P 	c #768745",
"Q 	c #A0BB50",
"R 	c #383936",
"S 	c #A2BD4F",
"T 	c #444838",
"U 	c #A0BB4F",
"V 	c #393A36",
"W 	c #51593C",
"X 	c #363634",
"Y 	c #8AA14A",
"Z 	c #4B5039",
"` 	c #363735",
" .	c #383935",
"..	c #484E39",
"+.	c #647140",
"@.	c #8CA34B",
"#.	c #90A84B",
"$.	c #6F7F42",
"%.	c #3C3E35",
"&.	c #3A3B35",
"*.	c #545D3B",
"=.	c #95AE4D",
"-.	c #3D3F35",
";.	c #94AC4D",
">.	c #657140",
",.	c #3B3C35",
"'.	c #6F7E43",
").	c #9FBB50",
"!.	c #91A94C",
"~.	c #758644",
"{.	c #4B513A",
"].	c #91A74B",
"^.	c #9EB94F",
"/.	c #95AE4C",
"(.	c #829748",
"_.	c #535B3C",
". . + + + + + + + + + + + + + + + + + + + + + + + + + + + + + + + + + + + + + + + + + + + + + + + + + + + + + + + + . . ",
". + @ # # # # # # # # # # # # # # # # # # # # # # # # # # # # # # # # # # # # # # # # # # # # # # # # # # # # # # @ + . ",
"+ $ % @ @ @ @ @ @ @ @ @ @ @ @ @ @ @ @ @ @ @ @ @ @ @ @ @ @ @ @ @ @ @ @ @ @ @ @ @ @ @ @ @ @ @ @ @ @ @ @ @ @ @ @ @ @ % $ + ",
"+ $ & * * * * * * * * * * * * * * * * * * * * * * * * * * * * * * * * * * * * * * * * * * * * * * * * * * * * * * & $ + ",
"+ = - ; ; ; ; > > , ' ; ; ; ; ; ' , > > ; ; ; ; ; ; ; ; ; ; ; ; ; ; ; ; ; ; ; ; ; ; ; ; ; ; ; ; ; ; ; ; ; ; ; ; ; - = + ",
"+ = ) & ! ! ! > > > ~ ! ! ! ! ! { > > > ! ! ! ! ! ! ! ! ! ! ! ! ! ! ! ! ! ! ! ! ! ! ! ! ! ! ! ! ! ! ! ! ! ! ! ! & ) = + ",
"+ ) ] ] ^ / / > > > ( _ / / / _ : > > > / / / / / / / / / / / / / / / / / / / / / / / / / / / / / / / / / / / ^ ] ] ) + ",
"+ = ) ) ] < < > > [ > } < < < | > [ > > < < < < 1 2 3 4 5 6 7 < < < > > 8 9 0 a b c < < < > > < < < < < > > < ] ) ) = + ",
"+ d d d - - - > > e > f g - g f > h > > - - - i j > > > > > k l - - > > > > > > > > m - - > n - - - - - > > - - d d d + ",
"+ - - - o o o > > p q > r o s > q p > > o o o t > u v w x y > z o o > > q s A B C > D o o > E o o o o o > > o o - - - + ",
"+ F o o G G G > > G H > f I J > K G > > G G G j > > > > > > > L G G > > M G G G N > O G G > E G G G G G > > G G o o F + ",
"+ - F F o o o > > o p j > P > q p o > > o o o Q > > > > > > > > o o > > R o o o o > > o o > S o o o o R > > o o F F - + ",
"+ d - - F F F > > F F m > > > y F F > > F F F 3 > T F F F F F F F F > > F F F F F > > F F U > V F F F W > > F F - - d + ",
"+ d d d - - - > > - - X j > j X - - > > - - - P > Y Z `  ...+.@.- - > > - - - - - > > - - #.> $.%.&.*.=.> > - - d d d + ",
"+ d - - - - - > > - - - - - - - - - > > - - - -.;.> > > > > > > - - > > - - - - - > > - - >.> > > > > > > > - - - - d + ",
"+ ] d d - - - > > - - - - - - - - - > > - - - - ,.'.#.).).!.~.{.- - > > - - - - - > > - - - +.].^./.(._.> > - - d d ] + ",
"+ ] d d - - - - - - - - - - - - - - - - - - - - - - - - - - - - - - - - - - - - - - - - - - - - - - - - - - - - d d ] + ",
"+ ) ) ) ] ] ] ] ] ] ] ] ] ] ] ] ] ] ] ] ] ] ] ] ] ] ] ] ] ] ] ] ] ] ] ] ] ] ] ] ] ] ] ] ] ] ] ] ] ] ] ] ] ] ] ] ) ) ) + ",
". + ] ] ] ] ] ] ] ] ] ] ] ] ] ] ] ] ] ] ] ] ] ] ] ] ] ] ] ] ] ] ] ] ] ] ] ] ] ] ] ] ] ] ] ] ] ] ] ] ] ] ] ] ] ] ] ] + . ",
". . + + + + + + + + + + + + + + + + + + + + + + + + + + + + + + + + + + + + + + + + + + + + + + + + + + + + + + + + . . "};
