/* XPM */
static char * icewm2_xpm[] = {
"60 20 69 1",
" 	c None",
".	c #A3BF51",
"+	c #92A950",
"@	c #656E4B",
"#	c #666F4B",
"$	c #91A94E",
"%	c #92A94E",
"&	c #97B04E",
"*	c #626B48",
"=	c #636C49",
"-	c #7C8C4C",
";	c #96B04E",
">	c #A1BB4F",
",	c #9AB450",
"'	c #83964C",
")	c #606848",
"!	c #889B4D",
"~	c #9BB64F",
"{	c #A0BA4F",
"]	c #94AA4E",
"^	c #6E794A",
"/	c #616D3F",
"(	c #8DA44B",
"_	c #616C40",
":	c #97B04D",
"<	c #9CB74E",
"[	c #636F40",
"}	c #A1BD50",
"|	c #96AF4D",
"1	c #565F3E",
"2	c #57603D",
"3	c #788946",
"4	c #707F44",
"5	c #626E40",
"6	c #839748",
"7	c #748445",
"8	c #91A84B",
"9	c #A0BD4F",
"0	c #636F41",
"a	c #8EA44B",
"b	c #636E41",
"c	c #9DB74F",
"d	c #535B3D",
"e	c #9FBB4F",
"f	c #768745",
"g	c #A0BB50",
"h	c #A2BD4F",
"i	c #A0BB4F",
"j	c #51593C",
"k	c #8AA14A",
"l	c #4B5039",
"m	c #484E39",
"n	c #647140",
"o	c #8CA34B",
"p	c #90A84B",
"q	c #6F7F42",
"r	c #545D3B",
"s	c #95AE4D",
"t	c #94AC4D",
"u	c #657140",
"v	c #6F7E43",
"w	c #9FBB50",
"x	c #91A94C",
"y	c #758644",
"z	c #91A74B",
"A	c #9EB94F",
"B	c #95AE4C",
"C	c #829748",
"D	c #535B3C",
"                                                            ",
"                                                            ",
"                                                            ",
"                                                            ",
"      ..+       +..                                         ",
"      ...@     #...                                         ",
"      ...$     %...                                         ",
"      ..&.*   =.&..     -;>,'    ..)!~{]^   ..     ..       ",
"      ../.(   (._..    :.....<   ........[  .}     ..       ",
"      .. |.1 2.| ..   3.4   5.6  ..|2  7.8  .9     ..       ",
"      .. 0.( a.b ..   :.......c  ..d    .e  .9     ..       ",
"      ..  :.f.|  ..   g........  ..     ..  .h     ..       ",
"      ..  [...5  ..   ;.         ..     ..  i.    j..       ",
"      ..   :.:   ..   f.kl  mno  ..     ..  p.q  rs..       ",
"      ..         ..    t.......  ..     ..  u........       ",
"      ..         ..     vpwwxy   ..     ..   nzABCD..       ",
"                                                            ",
"                                                            ",
"                                                            ",
"                                                            "};
