/* XPM */
static char * windows_xpm[] = {
"24 20 11 1",
" 	c None",
".	c #252525",
"+	c #676767",
"@	c #A3BF51",
"#	c #4B4B4B",
"$	c #434343",
"%	c #3A3A3A",
"&	c #363636",
"*	c #353535",
"=	c #343434",
"-	c #323232",
"                        ",
"                        ",
"   ...........          ",
"  .++++++@+@+@.         ",
"  .............         ",
"  .###########.         ",
"  .$$$$$$$$$$$.         ",
"  .%%%%%%%%%%%.         ",
"  .&&&&&&&&...........  ",
"  .*******.++++++@+@+@. ",
"  .=======............. ",
"  .-------.###########. ",
"   ........$$$$$$$$$$$. ",
"          .%%%%%%%%%%%. ",
"          .&&&&&&&&&&&. ",
"          .***********. ",
"          .===========. ",
"          .-----------. ",
"           ...........  ",
"                        "};
