/* XPM */
static char * workspacebuttonbg_xpm[] = {
"1 25 16 1",
" 	c None",
".	c #2D2D2D",
"+	c #252525",
"@	c #676767",
"#	c #4D4D4D",
"$	c #4E4E4E",
"%	c #4C4C4C",
"&	c #4A4A4A",
"*	c #494949",
"=	c #464646",
"-	c #333333",
";	c #343434",
">	c #363636",
",	c #373737",
"'	c #353535",
")	c #323232",
".",
"+",
"@",
"#",
"$",
"%",
"&",
"&",
"*",
"=",
"-",
";",
">",
",",
">",
"'",
";",
";",
";",
";",
";",
")",
")",
"+",
"."};
