/* XPM */
static char * linux_xpm[] = {
"39 18 2 1",
" 	c None",
".	c #EEEEEC",
"                                       ",
"                                       ",
"                                       ",
"             ..   ..   ..              ",
"             ..   ..   ..              ",
"                                       ",
"                                       ",
"                                       ",
"             ..   ..   ..              ",
"             ..   ..   ..              ",
"                                       ",
"                                       ",
"                                       ",
"             ..   ..   ..              ",
"             ..   ..   ..              ",
"                                       ",
"                                       ",
"                                       "};
