/* XPM */
static char * taskbuttonactive_xpm[] = {
"4 24 3 1",
" 	c None",
".	c #484848",
"+	c #EEEEEC",
"....",
"....",
"....",
"....",
"....",
"....",
"....",
"....",
"....",
"....",
"....",
"....",
"....",
"....",
"....",
"....",
"....",
"....",
"....",
"....",
"....",
"....",
"....",
"++++"};
