/* XPM */
static char * linux_xpm[] = {
"39 22 2 1",
" 	c None",
".	c #EEEEEC",
"                                       ",
"                                       ",
"                                       ",
"                                       ",
"                                       ",
"             ..   ..   ..              ",
"             ..   ..   ..              ",
"                                       ",
"                                       ",
"                                       ",
"             ..   ..   ..              ",
"             ..   ..   ..              ",
"                                       ",
"                                       ",
"                                       ",
"             ..   ..   ..              ",
"             ..   ..   ..              ",
"                                       ",
"                                       ",
"                                       ",
"                                       ",
"                                       "};
