/* XPM */
static char * linux_xpm[] = {
"41 18 84 1",
" 	c None",
".	c #454545",
"+	c #444444",
"@	c #2B2B2B",
"#	c #3F3F3F",
"$	c #434343",
"%	c #3E3E3E",
"&	c #424242",
"*	c #434240",
"=	c #AE9555",
"-	c #CCAA55",
";	c #CDAC55",
">	c #AD9455",
",	c #414141",
"'	c #AE9655",
")	c #FAC32D",
"!	c #FFBD09",
"~	c #FFBC07",
"{	c #FAC32E",
"]	c #AC9454",
"^	c #C8A94D",
"/	c #FFC00A",
"(	c #FFBF07",
"_	c #C4940B",
":	c #F8BA08",
"<	c #C7A84D",
"[	c #404040",
"}	c #C7A94A",
"|	c #FFC109",
"1	c #DAA70E",
"2	c #594C25",
"3	c #92741A",
"4	c #FFC108",
"5	c #C6A947",
"6	c #FFC40A",
"7	c #6D5A20",
"8	c #F0BC17",
"9	c #776325",
"0	c #E8B30B",
"a	c #FFC409",
"b	c #EAB40B",
"c	c #796525",
"d	c #F2BD17",
"e	c #6C5A20",
"f	c #C5A744",
"g	c #FFC60A",
"h	c #FFCA19",
"i	c #FFC609",
"j	c #FFC814",
"k	c #FFC70F",
"l	c #C4A641",
"m	c #FFC90B",
"n	c #FFC90A",
"o	c #3D3D3D",
"p	c #C2A63E",
"q	c #FFCB0B",
"r	c #FFCB0A",
"s	c #3C3C3C",
"t	c #C2A73B",
"u	c #FFCE0C",
"v	c #FFCE0B",
"w	c #3B3B3B",
"x	c #C0A739",
"y	c #FFD00D",
"z	c #FFD00C",
"A	c #977F19",
"B	c #64561B",
"C	c #C0A63A",
"D	c #3A3A3A",
"E	c #A7974A",
"F	c #F9CF10",
"G	c #FFD30C",
"H	c #FFD61C",
"I	c #FFD724",
"J	c #F8CE10",
"K	c #A5954B",
"L	c #3B3B38",
"M	c #A29347",
"N	c #BCA333",
"O	c #BDA632",
"P	c #A19348",
"Q	c #393939",
"R	c #383838",
"S	c #373737",
".........................................",
"++++++++++++++++++++++++++++++++++++@#$@#",
"$$$$$$$$$$$$$$$$$$$$$$$$$$$$$$$$$$$$%%&%%",
"&&&&&&&&&&&*=-;;;;;;;;->*&&&&&&&&&&&,,,,,",
",,,,,,,,,,,')!~~~~~~~~!{],,,,,,,,,,,@%,@%",
",,,,,,,,,,,^/(_:((((:_(/<,,,,,,,,,,,%%[%%",
"[[[[[[[[[[[}|1234444321|}[[[[[[[[[[[[[[[[",
"[[[[[[[[[[[567890aabcde65[[[[[[[[[[[@%#@%",
"%%%%%%%%%%%fghijkiikjihgf%%%%%%%%%%%%%%%%",
"%%%%%%%%%%%lmnnnnnnnnnnml%%%%%%%%%%%%%%%%",
"ooooooooooopqrrrrrrrrrrqpooooooooooo@%o@%",
"ssssssssssstuvvvvvvvvvvutsssssssssss%%s%%",
"wwwwwwwwwwwxyzzzABBAzzzyCwwwwwwwwwwwsssss",
"DDDDDDDDDDDEFGGGHIIHGGGJKDDDDDDDDDDD@%w@%",
"DDDDDDDDDDDLMNOOOOOOOONPLDDDDDDDDDDD%%D%%",
"QQQQQQQQQQQQQQQQQQQQQQQQQQQQQQQQQQQQDDDDD",
"RRRRRRRRRRRRRRRRRRRRRRRRRRRRRRRRRRRR@%Q@%",
"SSSSSSSSSSSSSSSSSSSSSSSSSSSSSSSSSSSS%%Q%%"};
