/* XPM */
static char * depthO_xpm[] = {
"18 48 5 1",
" 	c None",
".	c #EEEEEC",
"+	c #454D54",
"@	c #729FCF",
"#	c #888A85",
"..................",
"..................",
"..................",
"..................",
"..................",
"..................",
"..................",
".....+++..+++.....",
".....+++..+++.....",
".....+++..+++.....",
"..................",
"..................",
".....+++..+++.....",
".....+++..+++.....",
".....+++..+++.....",
"..................",
"..................",
"..................",
"..................",
"..................",
"..................",
"..................",
"..................",
"@@@@@@@@@@@@@@@@@@",
"..................",
"..................",
"..................",
"..................",
"..................",
"..................",
"..................",
".....###..###.....",
".....###..###.....",
".....###..###.....",
"..................",
"..................",
".....###..###.....",
".....###..###.....",
".....###..###.....",
"..................",
"..................",
"..................",
"..................",
"..................",
"..................",
"..................",
"..................",
"@@@@@@@@@@@@@@@@@@"};
