/* XPM */
static char * frameIBR_xpm[] = {
"22 21 2 1",
" 	c None",
".	c #204A87",
"                     .",
"                     .",
"                     .",
"                     .",
"                     .",
"                     .",
"                     .",
"                     .",
"                     .",
"                     .",
"                     .",
"                     .",
"                     .",
"                     .",
"                     .",
"                     .",
"                     .",
"                     .",
"                     .",
"                     .",
"......................"};
