/* XPM */
static char * menusel_xpm[] = {
"4 25 3 1",
" 	c None",
".	c #D9D9D7",
"+	c #666666",
"....",
"....",
"....",
"....",
"....",
"....",
"....",
"....",
"....",
"....",
"....",
"....",
"....",
"....",
"....",
"....",
"....",
"....",
"....",
"....",
"....",
"....",
"....",
"....",
"++++"};
