/* XPM */
static char * menuButtonA_xpm[] = {
"18 48 4 1",
" 	c None",
".	c #EEEEEC",
"+	c #454D54",
"@	c #729FCF",
"..................",
"..................",
"..................",
"..................",
"..................",
"..................",
"..................",
"..................",
"......++++++......",
"......++++++......",
"......++++++......",
"......++++++......",
"......++++++......",
"......++++++......",
"..................",
"..................",
"..................",
"..................",
"..................",
"..................",
"..................",
"..................",
"..................",
"@@@@@@@@@@@@@@@@@@",
"..................",
"..................",
"..................",
"..................",
"..................",
"..................",
"..................",
"..................",
"..................",
"..................",
"..................",
"..................",
"..................",
"..................",
"..................",
"..................",
"..................",
"..................",
"..................",
"..................",
"..................",
"..................",
"..................",
"@@@@@@@@@@@@@@@@@@"};
