/* XPM */
static char * menusel_xpm[] = {
"4 25 3 1",
" 	c None",
".	c #888888",
"+	c #D18712",
"....",
"....",
"....",
"....",
"....",
"....",
"....",
"....",
"....",
"....",
"....",
"....",
"....",
"....",
"....",
"....",
"....",
"....",
"....",
"....",
"....",
"....",
"....",
"++++",
"++++"};
