/* XPM */
static char * minimizeO_xpm[] = {
"18 44 5 1",
" 	c None",
".	c #EEEEEC",
"+	c #454D54",
"@	c #729FCF",
"#	c #888A85",
"..................",
"..................",
"..................",
"..................",
"..................",
"..................",
"..................",
".....+......+.....",
".....++....++.....",
".....+++..+++.....",
"......++++++......",
".......++++.......",
"........++........",
"..................",
"..................",
"..................",
"..................",
"..................",
"..................",
"..................",
"..................",
"@@@@@@@@@@@@@@@@@@",
"..................",
"..................",
"..................",
"..................",
"..................",
"..................",
"..................",
".....#......#.....",
".....##....##.....",
".....###..###.....",
"......######......",
".......####.......",
"........##........",
"..................",
"..................",
"..................",
"..................",
"..................",
"..................",
"..................",
"..................",
"@@@@@@@@@@@@@@@@@@"};
