/* XPM */
static char * rollup_xpm[] = {
"20 20 3 1",
" 	c None",
".	c #EEEEEC",
"+	c #454D54",
"....................",
"....................",
"....................",
"....................",
"....................",
"....................",
".........++.........",
"........++++........",
".......++..++.......",
"......++....++......",
"......+......+......",
"....................",
".........++.........",
".........++.........",
"....................",
"....................",
"....................",
"....................",
"....................",
"...................."};
