/* XPM */
static char * titleIB_xpm[] = {
"4 24 3 1",
" 	c None",
".	c #EEEEEC",
"+	c #204A87",
"....",
"....",
"....",
"....",
"....",
"....",
"....",
"....",
"....",
"....",
"....",
"....",
"....",
"....",
"....",
"....",
"....",
"....",
"....",
"....",
"....",
"....",
"....",
"++++"};
