/* XPM */
static char * linux_xpm[] = {
"39 24 2 1",
" 	c None",
".	c #EEEEEC",
"                                       ",
"                                       ",
"                                       ",
"                                       ",
"                                       ",
"                                       ",
"             ..   ..   ..              ",
"             ..   ..   ..              ",
"                                       ",
"                                       ",
"                                       ",
"             ..   ..   ..              ",
"             ..   ..   ..              ",
"                                       ",
"                                       ",
"                                       ",
"             ..   ..   ..              ",
"             ..   ..   ..              ",
"                                       ",
"                                       ",
"                                       ",
"                                       ",
"                                       ",
"                                       "};
