/* XPM */
static char * taskbuttonactive_xpm[] = {
"4 27 3 1",
" 	c None",
".	c #2E3436",
"+	c #729FCF",
"....",
"....",
"....",
"....",
"....",
"....",
"....",
"....",
"....",
"....",
"....",
"....",
"....",
"....",
"....",
"....",
"....",
"....",
"....",
"....",
"....",
"....",
"....",
"....",
"....",
"++++",
"++++"};
